<?xml version="1.0" standalone="no"?>
<!DOCTYPE svg PUBLIC "-//W3C//DTD SVG 20010904//EN"
 "http://www.w3.org/TR/2001/REC-SVG-20010904/DTD/svg10.dtd">
<svg version="1.0" xmlns="http://www.w3.org/2000/svg"
 width="3264.000000pt" height="3264.000000pt" viewBox="0 0 3264.000000 3264.000000"
 preserveAspectRatio="xMidYMid meet">

<g transform="translate(0.000000,3264.000000) scale(0.100000,-0.100000)"
fill="#000000" stroke="none">
<path d="M13438 31583 c7 -3 16 -2 19 1 4 3 -2 6 -13 5 -11 0 -14 -3 -6 -6z"/>
<path d="M19238 31583 c7 -3 16 -2 19 1 4 3 -2 6 -13 5 -11 0 -14 -3 -6 -6z"/>
<path d="M13333 31521 c-3 -12 -15 -21 -32 -23 -18 -2 -26 -9 -26 -23 0 -19
-4 -21 -51 -24 -12 0 -24 -9 -27 -20 -3 -14 -15 -21 -43 -23 -21 -2 -39 -9
-42 -17 -3 -9 0 -11 8 -6 9 5 11 4 6 -3 -4 -7 -21 -15 -39 -20 -18 -5 -32 -15
-32 -23 0 -9 -14 -15 -42 -17 -34 -3 -42 -7 -45 -25 -2 -15 -11 -23 -30 -25
-14 -2 -32 -11 -40 -20 -11 -13 -11 -15 2 -7 9 5 12 5 7 -1 -9 -9 -14 -11 -45
-13 -11 0 -24 -12 -30 -26 -7 -14 -18 -25 -24 -24 -39 5 -58 -2 -58 -21 0 -14
-7 -20 -24 -20 -26 0 -50 -22 -38 -35 4 -5 2 -5 -4 -2 -17 10 -72 -15 -77 -35
-4 -13 -15 -18 -41 -18 -29 0 -36 -4 -36 -20 0 -11 -4 -21 -10 -21 -33 -4 -60
-20 -60 -35 0 -9 -12 -14 -35 -14 -28 0 -35 -4 -35 -20 0 -14 -7 -20 -25 -21
-14 -1 -29 -3 -35 -4 -5 -1 -14 -3 -20 -4 -5 0 -10 -10 -10 -21 0 -14 -7 -20
-24 -20 -15 0 -26 -7 -29 -20 -4 -15 -14 -20 -41 -20 -20 0 -37 -4 -37 -10 -1
-5 -2 -16 -3 -22 0 -8 -18 -14 -42 -16 -32 -2 -43 -8 -47 -23 -3 -13 -14 -19
-32 -19 -14 0 -24 -4 -20 -9 8 -15 -24 -41 -50 -41 -15 0 -26 -7 -30 -20 -5
-16 -15 -20 -46 -20 -21 0 -39 -5 -39 -11 0 -5 6 -7 13 -3 6 4 3 -2 -7 -14
-11 -12 -30 -22 -43 -22 -15 0 -22 -4 -17 -11 9 -15 -15 -29 -51 -29 -22 0
-33 -6 -40 -22 -6 -14 -21 -24 -37 -26 -14 -2 -32 -11 -40 -20 -12 -15 -11
-16 5 -3 9 7 17 9 17 3 0 -11 -24 -22 -50 -22 -10 0 -25 -11 -34 -25 -11 -17
-26 -25 -46 -25 -20 0 -31 -6 -35 -20 -4 -12 -15 -20 -29 -20 -13 0 -30 -8
-37 -17 -12 -14 -12 -16 0 -8 10 5 12 4 7 -4 -4 -6 -11 -9 -16 -6 -5 3 -11 1
-15 -5 -3 -5 -14 -10 -23 -10 -10 0 -23 -9 -30 -20 -8 -14 -23 -20 -48 -20
-22 0 -33 -4 -29 -10 9 -15 -15 -42 -31 -36 -15 6 -37 -18 -26 -29 4 -5 1 -5
-5 -1 -7 4 -13 2 -13 -3 0 -6 -13 -11 -29 -11 -19 0 -30 -6 -34 -19 -3 -12
-17 -20 -46 -25 -32 -5 -41 -11 -41 -26 0 -14 -7 -20 -23 -20 -12 0 -30 -9
-40 -20 -9 -11 -28 -20 -42 -20 -15 0 -28 -7 -32 -17 -9 -24 -23 -33 -51 -33
-15 0 -26 -7 -29 -19 -3 -12 -15 -21 -32 -23 -14 -2 -26 -8 -26 -15 0 -13 -13
-27 -26 -29 -5 -1 -20 -2 -33 -3 -15 -1 -26 -9 -29 -21 -5 -18 -34 -27 -69
-21 -4 0 -5 -5 -2 -13 3 -9 -6 -19 -25 -27 -17 -8 -34 -22 -37 -31 -3 -10 -8
-17 -12 -17 -4 1 -21 1 -39 0 -24 -1 -32 -6 -35 -23 -2 -14 -12 -23 -28 -25
-14 -3 -30 -6 -37 -7 -7 -1 -16 -6 -20 -11 -4 -4 -2 -5 5 -1 6 4 12 3 12 -2 0
-11 -24 -22 -48 -22 -10 0 -22 -10 -27 -22 -7 -16 -20 -24 -41 -26 -22 -2 -34
-9 -37 -23 -4 -14 -14 -19 -36 -19 -17 0 -30 -3 -30 -7 4 -23 -4 -31 -35 -37
-22 -4 -36 -13 -39 -26 -4 -16 -14 -20 -46 -20 -35 0 -41 -3 -41 -20 0 -15 -9
-22 -30 -26 -16 -4 -28 -10 -25 -14 3 -4 -2 -13 -10 -20 -8 -7 -15 -10 -15 -7
0 3 -12 2 -27 -2 -16 -4 -28 -14 -28 -22 0 -7 -9 -15 -20 -17 -51 -7 -63 -13
-68 -32 -3 -11 -14 -20 -25 -20 -22 0 -46 -23 -34 -34 4 -4 3 -7 -3 -6 -35 7
-63 -2 -73 -25 -9 -20 -19 -25 -46 -25 -26 0 -36 -5 -41 -20 -4 -13 -15 -20
-31 -20 -14 0 -23 -4 -20 -8 12 -20 -18 -39 -66 -41 -11 -1 -18 -9 -18 -21 0
-16 -7 -20 -34 -20 -31 0 -67 -25 -57 -39 3 -3 -8 -8 -25 -11 -16 -3 -28 -9
-26 -13 7 -21 -2 -27 -37 -27 -30 0 -40 -4 -44 -20 -3 -11 -17 -24 -31 -30
-14 -5 -25 -15 -24 -22 2 -8 -10 -14 -33 -16 -27 -2 -38 -9 -42 -22 -3 -11
-17 -24 -31 -30 -14 -5 -26 -16 -26 -25 0 -8 -3 -14 -7 -14 -5 1 -22 1 -40 0
-25 -1 -32 -6 -35 -23 -2 -13 -8 -23 -15 -23 -6 0 -21 -10 -33 -22 -11 -13
-27 -24 -35 -24 -29 -3 -33 -4 -42 -13 -5 -5 -3 -6 5 -2 6 4 12 3 12 -3 0 -5
-15 -14 -34 -21 -19 -6 -36 -19 -39 -30 -3 -12 -14 -20 -25 -20 -11 0 -22 -9
-25 -20 -4 -18 -32 -26 -68 -22 -4 1 -10 -10 -13 -23 -4 -16 -13 -25 -26 -25
-18 0 -25 -10 -21 -32 0 -5 -13 -8 -31 -8 -17 0 -29 -3 -25 -6 10 -10 -27 -44
-49 -44 -13 0 -24 -8 -27 -20 -3 -12 -14 -20 -25 -20 -14 0 -22 -8 -24 -22 -2
-13 -9 -24 -15 -24 -7 -1 -20 -2 -29 -3 -8 0 -13 -5 -9 -10 8 -15 -15 -27 -55
-30 -13 -1 -20 -8 -20 -21 0 -13 -10 -24 -25 -30 -14 -5 -25 -16 -25 -25 0 -8
-9 -15 -19 -15 -11 0 -22 -9 -26 -20 -3 -11 -9 -19 -13 -18 -17 5 -72 -23 -72
-36 0 -9 -9 -16 -19 -16 -11 0 -23 -9 -26 -20 -3 -11 -10 -20 -15 -20 -5 0
-18 -10 -29 -21 -11 -12 -30 -27 -43 -34 -13 -6 -22 -17 -21 -23 2 -7 0 -11
-5 -10 -22 5 -62 -16 -62 -33 0 -14 -7 -19 -25 -19 -18 0 -25 -5 -25 -20 0
-13 -9 -22 -25 -26 -13 -3 -24 -9 -23 -13 2 -18 -3 -32 -10 -27 -11 7 -37 -11
-37 -26 0 -7 -6 -14 -12 -14 -7 -1 -20 -2 -28 -3 -8 0 -15 -7 -15 -15 0 -8 -4
-18 -10 -21 -6 -3 -8 2 -5 12 3 10 0 8 -6 -4 -7 -13 -20 -23 -31 -23 -10 0
-18 -7 -18 -16 0 -9 -9 -18 -20 -21 -11 -3 -23 -16 -26 -29 -4 -14 -14 -24
-24 -24 -10 0 -20 -9 -23 -20 -3 -12 -14 -20 -25 -20 -13 0 -22 -8 -24 -22 -2
-11 -11 -22 -21 -24 -10 -1 -27 -12 -37 -24 -11 -13 -31 -22 -45 -22 -14 0
-25 -5 -25 -10 0 -5 5 -6 10 -3 15 9 12 -4 -4 -21 -8 -8 -22 -14 -30 -14 -9 0
-16 -8 -16 -20 0 -15 -7 -20 -25 -20 -19 0 -25 -5 -25 -21 0 -12 -8 -23 -19
-26 -11 -3 -21 -13 -24 -24 -3 -11 -14 -19 -26 -19 -14 0 -21 -6 -21 -18 0
-11 -11 -24 -25 -30 -14 -6 -25 -18 -25 -27 0 -8 -9 -15 -20 -15 -11 0 -20 -4
-20 -9 0 -14 -73 -81 -88 -81 -7 0 -10 -4 -7 -10 3 -5 -11 -20 -32 -33 -41
-26 -71 -56 -72 -72 -1 -5 -5 -10 -10 -10 -5 0 -21 -12 -35 -27 -14 -16 -34
-28 -46 -28 -11 0 -20 -5 -20 -11 0 -5 5 -7 12 -3 7 5 8 3 4 -5 -5 -7 -19 -16
-32 -21 -13 -5 -24 -16 -24 -25 0 -9 -11 -20 -25 -25 -14 -5 -25 -16 -25 -25
0 -8 -7 -15 -15 -15 -9 0 -20 -11 -24 -24 -5 -13 -19 -26 -30 -29 -12 -3 -21
-12 -21 -21 0 -9 -8 -16 -20 -16 -11 0 -20 -5 -20 -11 0 -5 6 -7 13 -3 6 4 -8
-14 -32 -39 -24 -25 -48 -44 -52 -41 -4 2 -11 -1 -15 -7 -4 -8 -3 -9 4 -5 26
16 10 -12 -19 -35 -17 -13 -37 -36 -45 -51 -8 -15 -21 -28 -28 -28 -8 0 -17
-11 -20 -25 -4 -14 -13 -25 -21 -25 -8 0 -15 -6 -15 -14 0 -8 -9 -17 -19 -21
-10 -3 -22 -17 -25 -30 -4 -14 -10 -24 -14 -24 -22 4 -32 -3 -32 -21 0 -11 -7
-20 -15 -20 -9 0 -20 -11 -24 -24 -5 -13 -19 -26 -30 -29 -12 -3 -21 -12 -21
-21 0 -9 -8 -16 -20 -16 -15 0 -20 -7 -20 -24 0 -17 -6 -26 -20 -28 -12 -2
-19 -6 -18 -10 2 -4 -11 -22 -28 -40 -18 -18 -35 -43 -39 -55 -3 -13 -11 -23
-16 -23 -5 0 -14 -12 -19 -26 -6 -14 -14 -23 -19 -19 -6 3 -15 -4 -21 -15 -6
-11 -7 -20 -3 -21 4 -1 -3 -4 -17 -8 -16 -4 -25 -14 -25 -26 0 -13 -8 -21 -22
-23 -13 -2 -23 -10 -23 -19 0 -9 -8 -23 -18 -32 -11 -9 -24 -29 -29 -46 -6
-16 -15 -29 -22 -28 -6 2 -18 -11 -26 -27 -9 -17 -20 -28 -24 -25 -5 2 -12 -6
-15 -20 -4 -16 -13 -25 -26 -25 -14 0 -20 -7 -20 -23 0 -13 -10 -34 -22 -47
-13 -14 -23 -29 -23 -35 0 -5 -10 -14 -22 -20 -14 -6 -23 -18 -23 -32 0 -16
-6 -23 -20 -23 -11 0 -20 -6 -20 -14 0 -8 -7 -22 -16 -30 -8 -9 -12 -20 -9
-26 3 -5 -1 -10 -9 -10 -14 0 -21 -18 -17 -42 0 -5 -8 -8 -19 -8 -13 0 -20 -7
-20 -20 0 -12 -9 -24 -23 -29 -13 -5 -23 -18 -24 -30 -1 -12 -13 -35 -27 -52
-15 -17 -24 -35 -20 -40 3 -5 -4 -9 -15 -9 -14 0 -23 -8 -27 -27 -12 -55 -16
-63 -25 -58 -5 4 -13 -5 -18 -19 -6 -13 -17 -28 -26 -33 -8 -5 -18 -22 -21
-38 -7 -37 -12 -45 -30 -45 -8 0 -14 -10 -14 -25 0 -18 -5 -25 -20 -25 -13 0
-20 -7 -21 -20 -1 -11 -3 -24 -4 -30 -1 -5 -3 -14 -4 -19 0 -5 -10 -13 -21
-16 -13 -4 -20 -15 -20 -31 0 -13 -5 -24 -12 -24 -6 0 -8 -3 -5 -7 4 -3 -3
-17 -15 -31 -13 -13 -22 -27 -20 -30 1 -4 -6 -8 -18 -10 -17 -3 -20 -11 -20
-48 0 -37 -3 -44 -20 -44 -15 0 -20 -7 -20 -26 0 -33 -17 -64 -35 -64 -9 0
-15 -10 -15 -23 0 -13 -9 -32 -20 -42 -11 -10 -20 -28 -20 -40 0 -13 -7 -28
-15 -35 -8 -7 -12 -16 -9 -21 3 -5 0 -8 -8 -7 -8 2 -14 -9 -16 -30 -2 -18 -10
-36 -18 -39 -7 -3 -11 -9 -8 -14 3 -5 0 -9 -5 -9 -6 0 -11 -9 -11 -20 0 -10
-10 -28 -22 -40 -12 -11 -23 -34 -24 -51 -1 -16 -7 -36 -13 -43 -6 -7 -7 -16
-3 -20 4 -4 0 -6 -8 -4 -10 2 -16 -8 -20 -34 -3 -21 -14 -48 -25 -60 -20 -24
-21 -26 -23 -66 -1 -15 -10 -26 -22 -29 -16 -4 -20 -14 -20 -49 0 -29 -5 -47
-14 -50 -16 -6 -31 -49 -34 -101 -2 -16 -8 -23 -22 -23 -17 0 -20 -7 -20 -49
0 -59 -7 -81 -26 -81 -9 0 -14 -12 -15 -35 -2 -38 -2 -38 -12 -78 -5 -20 -13
-27 -22 -23 -12 4 -15 -6 -17 -47 0 -29 -1 -59 -2 -67 -1 -8 -9 -16 -19 -18
-13 -3 -17 -14 -18 -48 -3 -83 -11 -110 -29 -99 -5 3 -12 0 -16 -6 -4 -8 -3
-9 4 -5 7 4 12 2 12 -3 0 -6 -4 -11 -10 -11 -5 0 -10 -26 -10 -57 0 -70 -9
-105 -23 -96 -6 4 -7 1 -2 -7 4 -7 3 -15 -3 -19 -5 -3 -12 -44 -14 -91 -3 -74
-6 -86 -24 -95 -20 -10 -22 -19 -23 -127 -2 -130 -7 -168 -23 -183 -8 -7 -9
-6 -3 5 6 11 5 12 -4 4 -8 -7 -11 -156 -11 -550 -1 -519 0 -540 19 -555 16
-13 19 -31 20 -140 2 -114 4 -126 25 -149 19 -21 23 -38 25 -105 3 -83 7 -99
21 -90 14 8 20 -23 20 -101 0 -67 2 -74 20 -74 11 0 20 -1 21 -2 0 -2 2 -30 5
-63 4 -43 11 -65 25 -77 11 -9 19 -20 18 -25 -1 -4 -1 -29 0 -55 1 -36 5 -48
16 -48 21 0 33 -32 34 -96 1 -23 7 -33 21 -37 16 -4 20 -14 20 -52 0 -28 4
-44 10 -40 14 9 37 -55 39 -107 1 -9 10 -20 21 -23 16 -5 20 -15 20 -46 0 -28
5 -42 18 -47 16 -7 23 -20 26 -52 1 -9 12 -26 24 -38 14 -14 22 -34 22 -58 0
-19 4 -33 9 -30 14 9 30 -18 35 -55 2 -19 8 -34 14 -34 12 0 26 -13 28 -26 1
-5 2 -21 3 -35 1 -16 8 -28 19 -30 11 -4 18 -17 20 -41 1 -24 10 -42 27 -55
13 -10 24 -22 24 -26 -5 -29 4 -52 21 -57 11 -4 20 -12 19 -18 -5 -39 3 -63
24 -72 12 -6 22 -17 23 -25 1 -8 2 -25 2 -36 1 -13 11 -24 22 -27 11 -3 20 -9
19 -14 -1 -4 -1 -22 0 -39 1 -25 6 -33 26 -38 14 -4 24 -10 24 -14 -1 -4 -1
-22 0 -39 1 -26 5 -33 21 -33 16 0 20 -7 21 -37 1 -21 1 -42 0 -46 -1 -5 3 -6
9 -2 5 3 19 -10 31 -29 12 -20 26 -36 31 -36 6 0 8 -7 4 -15 -3 -8 -1 -15 4
-15 6 0 10 -8 10 -17 0 -9 8 -26 19 -37 10 -12 23 -34 28 -51 5 -16 16 -30 24
-30 14 0 16 -5 18 -57 1 -21 6 -28 21 -28 11 0 21 -6 22 -12 0 -7 2 -18 2 -24
1 -6 8 -20 16 -30 9 -10 10 -15 3 -10 -7 4 -13 2 -13 -3 0 -6 9 -11 20 -11 14
0 20 -7 20 -24 0 -15 7 -26 18 -28 10 -3 19 -11 20 -19 6 -51 10 -64 20 -65 7
-1 17 -2 22 -3 6 0 10 -7 9 -13 -5 -39 2 -68 16 -68 9 0 18 -8 22 -17 3 -10
17 -30 30 -45 14 -14 25 -29 24 -32 -5 -31 1 -46 19 -46 16 0 20 -7 20 -34 0
-19 5 -38 12 -42 7 -5 8 -3 3 6 -5 9 -4 11 3 6 17 -10 15 -31 -6 -49 -16 -14
-44 -17 -180 -17 -101 0 -162 -4 -162 -10 0 -5 -5 -10 -11 -10 -5 0 -7 6 -3
13 4 7 3 9 -2 4 -5 -5 -9 -13 -9 -19 0 -15 -15 -16 -199 -23 -140 -4 -162 -7
-181 -25 -17 -16 -37 -20 -115 -22 -77 -2 -95 -6 -95 -18 0 -12 -17 -16 -83
-18 -47 -2 -82 -7 -82 -13 0 -6 6 -7 13 -3 6 4 3 -2 -7 -14 -16 -18 -30 -22
-83 -22 -56 0 -63 -2 -63 -20 0 -17 -7 -20 -50 -20 -29 0 -50 -5 -50 -11 0 -5
-5 -7 -12 -3 -8 5 -9 2 -5 -10 4 -9 3 -14 -2 -11 -5 3 -12 1 -16 -5 -3 -5 -24
-10 -46 -10 -27 0 -39 -4 -39 -14 0 -17 -22 -26 -61 -26 -19 0 -32 -6 -36 -17
-9 -25 -23 -33 -60 -33 -23 0 -33 -6 -38 -20 -4 -11 -12 -20 -18 -19 -40 5
-65 -3 -70 -20 -3 -13 -17 -22 -41 -26 -22 -5 -38 -14 -41 -26 -5 -14 -16 -19
-43 -19 -29 0 -39 -5 -47 -23 -10 -22 -13 -23 -60 -26 -18 -1 -25 -7 -25 -21
0 -15 -7 -20 -24 -20 -15 0 -27 -7 -30 -18 -4 -11 -22 -22 -44 -28 -22 -5 -37
-15 -37 -24 0 -9 -11 -16 -27 -18 -14 -2 -32 -11 -40 -20 -11 -13 -11 -15 2
-7 9 5 12 5 7 -1 -5 -5 -13 -10 -18 -10 -5 -1 -10 -2 -11 -4 -2 -1 -12 -3 -22
-5 -21 -4 -37 -25 -30 -37 3 -4 -7 -8 -21 -8 -14 0 -24 -4 -21 -9 8 -12 -14
-28 -44 -33 -14 -1 -29 -13 -35 -25 -5 -13 -17 -23 -27 -23 -9 0 -20 -9 -23
-20 -4 -13 -15 -20 -31 -20 -18 0 -24 -5 -22 -17 2 -11 -6 -22 -20 -28 -12 -5
-24 -17 -27 -25 -3 -9 -14 -16 -26 -17 -11 -1 -31 -13 -43 -27 -12 -14 -29
-26 -38 -26 -8 0 -18 -9 -21 -20 -3 -11 -12 -20 -19 -20 -8 0 -20 -11 -26 -25
-6 -14 -18 -25 -26 -25 -7 0 -16 -9 -19 -20 -3 -11 -12 -20 -20 -20 -8 0 -17
-9 -20 -21 -3 -11 -15 -23 -26 -26 -12 -3 -21 -12 -21 -20 0 -8 -9 -17 -19
-20 -11 -3 -22 -16 -25 -29 -4 -15 -14 -24 -26 -24 -12 0 -20 -7 -20 -16 0 -9
-9 -18 -20 -21 -11 -3 -20 -14 -20 -25 0 -11 -9 -22 -20 -25 -11 -3 -20 -10
-20 -15 0 -5 6 -6 13 -2 6 4 0 -5 -15 -20 -15 -16 -25 -32 -22 -37 3 -5 0 -8
-7 -7 -7 2 -18 -8 -26 -22 -7 -14 -18 -24 -23 -22 -6 1 -15 -9 -20 -23 -5 -14
-16 -25 -25 -25 -8 0 -15 -6 -15 -13 0 -7 -11 -23 -25 -35 -14 -12 -25 -26
-25 -32 0 -5 -9 -10 -19 -10 -11 0 -21 -9 -25 -24 -3 -13 -15 -26 -26 -29 -11
-3 -20 -12 -20 -21 0 -9 -8 -16 -20 -16 -14 0 -20 -7 -20 -24 0 -15 -7 -26
-20 -29 -11 -3 -20 -12 -20 -21 0 -9 -7 -16 -16 -16 -8 0 -12 -4 -9 -10 3 -5
2 -10 -3 -10 -4 0 -16 -16 -26 -36 -9 -20 -20 -34 -23 -30 -3 3 -15 -8 -25
-25 -10 -16 -22 -28 -27 -25 -5 3 -11 -3 -14 -14 -3 -11 -16 -24 -29 -29 -12
-6 -19 -10 -15 -10 4 -1 3 -10 -3 -21 -7 -14 -7 -20 0 -20 5 0 9 -3 9 -7 -4
-23 3 -33 21 -33 15 0 20 -7 20 -25 0 -20 5 -25 24 -25 13 0 30 -8 37 -17 10
-11 10 -14 2 -9 -7 4 -13 5 -13 1 0 -7 52 -29 62 -27 5 1 7 -3 5 -10 -1 -6 10
-18 26 -25 15 -8 27 -18 27 -24 0 -5 11 -14 25 -19 15 -6 25 -17 25 -29 0 -13
8 -21 23 -23 13 -2 22 -10 21 -20 -1 -9 8 -19 21 -22 12 -3 25 -15 28 -26 3
-12 13 -20 26 -20 12 0 20 -3 20 -7 -4 -22 3 -33 20 -33 10 0 21 -9 24 -21 3
-11 15 -23 26 -26 12 -3 21 -14 21 -24 0 -12 7 -19 20 -19 13 0 20 -7 20 -19
0 -13 8 -21 23 -23 14 -2 23 -11 25 -25 2 -13 10 -23 20 -23 9 0 34 -17 56
-37 21 -21 35 -32 31 -24 -5 9 -4 12 3 7 7 -4 12 -14 12 -22 0 -8 9 -14 19
-14 11 0 23 -9 26 -20 3 -11 13 -20 21 -20 8 0 20 -11 26 -25 6 -14 19 -25 30
-25 10 0 17 -5 15 -12 -1 -6 10 -18 26 -25 15 -8 27 -22 27 -34 0 -13 7 -19
21 -19 12 0 23 -8 26 -20 3 -11 14 -20 24 -20 13 0 19 -7 19 -24 0 -18 7 -25
31 -30 20 -4 29 -11 26 -19 -3 -8 4 -14 17 -14 11 -1 31 -13 42 -27 12 -13 30
-26 40 -28 11 -2 19 -10 19 -18 0 -8 10 -16 23 -18 16 -3 22 -10 22 -29 0 -15
3 -23 6 -20 10 10 44 -12 44 -28 0 -8 7 -15 15 -15 8 0 25 -11 37 -25 12 -14
32 -25 46 -25 15 0 26 -7 29 -19 3 -11 15 -21 27 -23 11 -2 21 -10 21 -18 0
-8 9 -17 20 -20 11 -3 21 -16 23 -28 2 -15 10 -22 26 -22 13 0 30 -8 37 -17
12 -15 12 -16 -1 -8 -11 6 -12 5 -5 -3 9 -10 37 -18 68 -21 4 -1 7 -9 5 -18
-2 -12 6 -19 27 -23 17 -3 29 -9 28 -13 -6 -17 -2 -27 11 -27 8 0 24 -9 37
-21 13 -11 18 -18 12 -14 -7 3 -13 1 -13 -4 0 -6 11 -11 24 -11 34 0 56 -10
56 -25 0 -8 10 -15 22 -17 15 -2 24 -11 26 -25 2 -14 10 -23 21 -23 19 0 45
-23 36 -31 -2 -3 4 -6 13 -7 43 -5 57 -10 58 -20 1 -7 2 -16 3 -22 0 -5 10
-10 22 -10 12 0 23 -8 26 -19 3 -13 17 -21 44 -25 25 -4 39 -12 39 -21 0 -9
11 -20 25 -25 14 -5 25 -16 25 -25 0 -9 9 -15 24 -15 13 0 34 -11 47 -25 13
-13 32 -25 42 -25 15 0 22 -11 18 -32 0 -5 10 -8 23 -8 14 0 28 -5 31 -10 4
-6 11 -8 16 -5 5 3 6 -1 3 -9 -3 -9 -1 -17 5 -17 6 -1 16 -3 21 -4 6 -1 17 -3
25 -4 8 0 14 -4 14 -8 -4 -23 3 -33 24 -33 12 0 28 -9 35 -20 7 -11 23 -20 37
-20 17 0 29 -8 37 -25 7 -16 19 -25 33 -25 12 0 30 -9 39 -19 10 -11 28 -22
42 -25 15 -4 24 -14 24 -26 0 -17 7 -20 40 -20 37 0 45 -7 41 -32 0 -5 9 -8
22 -8 28 -1 61 -25 52 -39 -4 -7 7 -11 29 -11 29 0 36 -4 36 -20 0 -15 7 -20
28 -21 37 -1 57 -11 57 -29 0 -10 12 -16 37 -18 26 -2 39 -9 43 -23 4 -10 15
-19 25 -19 10 0 25 -11 34 -25 12 -19 25 -25 51 -25 25 0 35 -5 40 -20 4 -13
15 -20 30 -20 36 0 55 -10 55 -31 0 -15 7 -19 39 -19 30 0 41 -5 46 -19 4 -15
17 -21 48 -23 23 -2 41 -7 40 -13 -3 -18 15 -31 48 -33 40 -3 50 -9 42 -27 -4
-12 4 -15 33 -15 44 0 70 -13 60 -29 -5 -7 2 -11 18 -12 14 -1 31 -3 36 -4 6
-1 14 -3 19 -4 5 0 11 -10 14 -21 4 -16 14 -20 47 -20 33 0 43 -4 47 -20 4
-16 14 -20 43 -20 22 0 46 -7 57 -17 10 -10 13 -14 6 -9 -10 6 -12 4 -7 -8 4
-12 19 -16 55 -16 38 0 52 -4 61 -20 9 -14 24 -20 48 -20 24 0 44 -8 62 -25
18 -17 39 -25 62 -25 44 0 66 -9 66 -26 0 -9 12 -14 34 -14 62 0 96 -11 96
-31 0 -17 8 -19 66 -19 57 0 67 -3 71 -20 5 -17 14 -20 67 -20 80 0 106 -8
106 -31 0 -17 9 -19 90 -19 70 0 90 -3 90 -14 0 -22 23 -26 141 -26 107 0 110
0 121 -25 l11 -26 421 3 c328 2 421 6 422 16 1 6 2 17 3 22 1 6 57 10 146 10
134 0 146 1 157 20 12 18 24 20 126 20 62 0 111 4 108 9 -5 8 22 39 37 40 4 1
46 1 93 1 77 0 86 2 91 20 5 18 14 20 95 20 65 0 88 3 87 13 -4 34 2 37 71 37
59 0 72 3 82 20 11 17 24 20 85 20 71 0 73 1 73 25 0 24 2 25 65 25 62 0 71 4
66 33 0 4 32 7 73 7 67 0 74 2 71 18 -2 14 4 19 31 20 29 2 36 -2 44 -23 17
-45 10 -122 -11 -109 -5 3 -6 -2 -3 -10 3 -9 2 -16 -4 -16 -5 0 -13 -20 -16
-44 -5 -32 -13 -47 -27 -51 -17 -6 -26 -42 -20 -78 1 -5 -7 -11 -17 -14 -12
-3 -22 -19 -28 -46 -6 -26 -15 -42 -24 -42 -8 0 -16 -9 -18 -20 -2 -11 -14
-28 -25 -38 -12 -10 -16 -16 -9 -12 10 6 11 3 3 -11 -5 -11 -12 -27 -15 -36
-3 -10 -15 -18 -26 -18 -15 0 -20 -7 -20 -26 0 -15 -8 -33 -17 -41 -11 -9 -12
-12 -3 -7 8 4 5 -3 -8 -15 -12 -12 -20 -26 -17 -31 3 -4 -6 -11 -20 -14 -16
-4 -25 -13 -25 -26 0 -11 -6 -20 -14 -20 -8 0 -18 -5 -22 -12 -4 -6 -3 -8 3
-5 6 4 3 -9 -5 -28 -9 -19 -24 -37 -33 -40 -10 -3 -19 -16 -21 -28 -2 -12 -10
-22 -18 -22 -8 0 -16 -10 -18 -22 -2 -15 -10 -23 -23 -23 -11 0 -19 -7 -19
-16 0 -9 -11 -25 -24 -35 -13 -10 -26 -32 -29 -49 -4 -16 -12 -29 -18 -28 -7
2 -18 -8 -25 -22 -7 -14 -19 -25 -26 -25 -7 0 -14 -10 -16 -22 -2 -14 -11 -23
-25 -25 -12 -2 -22 -10 -22 -18 0 -8 -10 -19 -22 -25 -13 -5 -23 -16 -23 -23
0 -8 -9 -16 -19 -19 -11 -3 -22 -16 -25 -29 -4 -15 -14 -24 -26 -24 -13 0 -20
-7 -20 -20 0 -13 -7 -20 -20 -20 -13 0 -20 -7 -20 -20 0 -13 -9 -22 -25 -26
-14 -3 -25 -13 -25 -21 0 -8 -9 -17 -19 -20 -11 -3 -21 -14 -24 -25 -3 -11
-15 -22 -26 -25 -12 -3 -21 -12 -21 -19 0 -8 -12 -19 -26 -24 -14 -6 -23 -14
-20 -19 7 -11 -18 -33 -27 -25 -4 4 -11 -5 -16 -20 -7 -15 -18 -26 -30 -26
-10 0 -22 -7 -25 -15 -3 -9 -22 -23 -41 -31 -19 -8 -35 -19 -35 -24 0 -6 -11
-15 -25 -20 -14 -5 -24 -15 -23 -22 2 -7 -7 -17 -20 -23 -12 -5 -22 -15 -22
-22 0 -7 -11 -15 -24 -19 -13 -3 -26 -14 -29 -25 -3 -11 -14 -19 -25 -19 -11
0 -26 -8 -33 -17 -12 -14 -12 -16 0 -8 10 5 12 4 7 -4 -4 -6 -11 -9 -16 -6 -5
3 -11 1 -15 -5 -3 -5 -15 -10 -26 -10 -12 0 -19 -7 -19 -19 0 -10 -9 -21 -20
-24 -11 -3 -20 -12 -20 -21 0 -9 -11 -18 -25 -22 -23 -6 -30 -15 -26 -36 0 -5
-10 -8 -24 -8 -18 0 -25 -5 -25 -20 0 -11 -5 -20 -12 -20 -7 0 -6 -6 4 -17 10
-12 16 -42 17 -91 2 -57 7 -78 22 -93 16 -16 19 -34 19 -120 0 -68 3 -98 11
-94 23 15 38 -30 39 -115 0 -74 3 -87 20 -98 18 -11 20 -23 20 -102 0 -81 2
-90 19 -90 22 0 27 -15 30 -100 2 -50 7 -67 22 -78 16 -11 19 -25 19 -86 0
-63 3 -75 23 -93 18 -15 24 -32 26 -72 1 -36 8 -60 22 -74 14 -16 19 -36 20
-86 1 -36 1 -70 0 -74 -1 -5 3 -6 8 -2 10 6 43 -36 40 -51 -1 -5 -1 -25 0 -45
1 -26 6 -38 19 -41 15 -4 19 -17 21 -63 2 -42 7 -62 21 -74 16 -14 28 -60 30
-113 0 -10 6 -18 14 -18 16 0 26 -30 26 -83 0 -26 6 -44 20 -55 13 -12 20 -32
22 -67 2 -41 7 -52 25 -60 18 -8 23 -18 23 -49 0 -25 6 -44 18 -53 10 -9 11
-11 2 -7 -11 6 -10 2 2 -13 11 -11 18 -36 18 -59 0 -31 5 -41 22 -49 21 -10
25 -20 30 -79 1 -16 10 -34 20 -40 13 -7 18 -23 18 -52 0 -34 4 -43 25 -52 14
-7 25 -18 24 -24 -3 -29 1 -71 8 -65 14 14 33 -17 33 -54 0 -27 7 -45 25 -63
18 -19 25 -36 25 -66 0 -33 3 -40 20 -40 17 0 20 -7 20 -45 0 -38 3 -45 20
-45 11 0 21 -4 21 -10 1 -5 3 -14 4 -20 1 -5 3 -19 4 -31 0 -12 10 -23 21 -26
16 -4 20 -14 20 -45 0 -32 4 -41 20 -45 14 -4 22 -17 26 -44 4 -25 13 -40 25
-44 14 -5 19 -16 19 -46 0 -21 4 -39 9 -39 18 0 41 -31 41 -55 0 -14 9 -29 20
-35 11 -6 20 -20 20 -31 0 -11 6 -22 14 -25 16 -6 39 -62 31 -74 -3 -5 5 -10
17 -12 13 -2 23 -10 24 -18 1 -8 2 -27 2 -42 2 -20 7 -28 21 -28 14 0 21 -8
23 -27 2 -17 8 -27 16 -25 8 1 11 -2 8 -7 -3 -5 1 -14 9 -21 8 -7 15 -21 15
-31 0 -11 6 -19 14 -19 15 0 39 -54 28 -65 -4 -3 2 -3 13 1 15 6 17 4 12 -9
-4 -11 -1 -17 8 -17 9 0 15 -10 15 -25 0 -14 3 -24 8 -24 20 3 32 -3 32 -16 0
-9 9 -26 21 -38 11 -12 23 -34 26 -49 3 -16 12 -28 19 -28 8 0 19 -12 24 -26
6 -14 15 -22 20 -19 6 3 13 -2 17 -12 3 -10 15 -26 25 -36 10 -10 16 -22 13
-27 -3 -5 -1 -11 5 -15 5 -3 10 -15 10 -26 0 -13 7 -19 21 -19 12 0 23 -8 26
-20 3 -10 14 -22 24 -25 10 -4 19 -15 19 -26 0 -12 7 -19 20 -19 11 0 20 -5
20 -12 0 -13 7 -21 89 -102 28 -27 48 -53 45 -58 -5 -7 10 -12 29 -9 7 1 11
-15 8 -31 0 -5 8 -8 19 -8 11 0 20 -4 20 -8 0 -14 68 -80 87 -84 10 -2 17 -11
15 -21 -2 -9 2 -18 8 -18 5 -1 16 -2 23 -3 6 0 13 -11 15 -24 3 -16 10 -22 28
-22 17 0 24 -5 24 -20 0 -13 7 -20 18 -20 22 0 65 -34 55 -44 -3 -3 6 -6 21
-6 19 0 29 -6 33 -19 3 -11 14 -21 25 -24 11 -3 22 -15 25 -26 4 -16 13 -21
40 -21 26 0 36 -5 40 -19 3 -11 14 -21 25 -24 11 -3 22 -15 25 -26 3 -13 14
-21 29 -22 37 -2 42 -3 51 -13 5 -6 2 -6 -7 -1 -13 8 -13 7 -1 -8 7 -9 22 -17
32 -17 12 0 23 -10 29 -25 9 -22 31 -32 63 -26 5 1 11 -7 14 -18 3 -11 17 -21
33 -24 16 -4 30 -14 33 -26 3 -15 13 -21 31 -21 14 0 34 -9 43 -20 10 -11 23
-20 29 -20 6 0 18 -9 25 -20 8 -11 27 -23 43 -26 38 -6 46 -12 46 -30 0 -8 10
-15 25 -15 43 -2 46 -4 59 -22 7 -9 27 -22 45 -28 17 -6 31 -15 31 -21 0 -5
-6 -6 -12 -2 -9 5 -10 4 -3 -4 6 -6 26 -12 45 -14 27 -2 34 -7 32 -20 -2 -14
5 -18 30 -19 18 -1 36 -1 41 0 4 1 13 -10 19 -24 7 -16 19 -25 34 -25 32 0 54
-10 54 -25 0 -9 14 -15 38 -17 27 -2 40 -9 47 -26 6 -13 19 -23 32 -23 42 -3
67 -15 58 -28 -2 -5 13 -11 35 -15 21 -3 42 -11 46 -18 5 -7 3 -8 -7 -3 -12 8
-12 6 0 -8 7 -9 25 -17 38 -17 16 0 27 -7 30 -20 4 -15 14 -20 39 -20 31 0 49
-12 49 -35 0 -5 17 -11 37 -13 26 -2 39 -9 43 -23 4 -12 15 -19 31 -19 21 0
29 -11 26 -40 0 -3 14 -7 31 -8 18 -1 39 -11 49 -22 9 -11 23 -20 32 -20 9 0
16 -6 16 -14 0 -17 21 -35 46 -39 18 -2 34 -15 89 -67 12 -11 26 -20 33 -20 7
0 12 -9 12 -20 0 -13 7 -20 18 -20 11 0 24 -11 30 -25 6 -14 17 -24 24 -23 7
2 14 -7 16 -19 2 -15 10 -23 23 -23 12 0 23 -10 29 -25 5 -14 15 -24 22 -23 7
2 14 -7 16 -19 2 -13 12 -23 25 -25 12 -2 21 -9 19 -16 -1 -7 9 -18 23 -24 14
-6 25 -19 25 -29 0 -9 7 -20 15 -23 9 -3 21 -19 26 -36 6 -16 17 -30 25 -30 8
0 17 -13 20 -29 4 -21 13 -31 28 -33 11 -2 22 -9 22 -15 1 -7 2 -17 3 -23 0
-5 8 -10 16 -10 13 0 28 -34 30 -65 0 -5 9 -14 20 -20 11 -6 21 -17 23 -24 2
-7 12 -21 23 -30 11 -9 21 -30 22 -48 1 -17 4 -30 6 -27 9 9 41 -19 41 -36 0
-11 7 -20 15 -20 10 0 17 -14 21 -41 5 -27 13 -43 24 -46 11 -3 21 -20 26 -46
6 -27 15 -42 24 -42 8 0 17 -11 18 -25 2 -14 9 -31 15 -39 9 -12 9 -13 0 -7
-7 4 -13 2 -13 -3 0 -6 9 -11 20 -11 14 0 20 -7 20 -22 0 -12 8 -30 17 -41 10
-11 12 -17 6 -13 -7 4 -13 3 -13 -2 0 -5 9 -12 20 -15 14 -3 20 -14 20 -31 0
-15 9 -36 20 -48 13 -14 20 -36 20 -59 0 -31 4 -38 23 -41 22 -3 24 -6 26 -58
1 -18 6 -30 15 -30 14 0 26 -29 26 -67 0 -12 8 -27 18 -32 9 -6 13 -11 7 -11
-5 0 -4 -4 4 -9 7 -5 16 -30 19 -56 3 -35 10 -49 23 -52 16 -5 19 -15 19 -68
0 -58 2 -64 23 -67 19 -3 22 -10 25 -58 3 -67 8 -81 24 -78 9 2 14 -16 16 -65
2 -51 6 -67 18 -67 23 0 32 -33 33 -122 1 -42 5 -58 15 -58 19 0 26 -32 26
-117 0 -79 6 -103 25 -103 16 0 20 -24 24 -134 2 -70 6 -93 19 -102 14 -10 18
-34 20 -133 3 -109 6 -121 22 -121 10 0 20 -8 23 -19 3 -12 17 -20 46 -25 32
-5 41 -11 41 -26 0 -17 7 -20 41 -20 32 0 42 -4 46 -20 3 -12 14 -20 29 -21
13 -1 29 -3 34 -4 6 -1 15 -3 20 -4 6 0 10 -10 10 -21 0 -17 7 -20 44 -20 35
0 45 -4 49 -20 5 -18 35 -27 70 -21 4 1 12 -10 17 -24 7 -20 17 -25 42 -25 39
0 63 -13 54 -29 -4 -6 -4 -11 1 -10 26 5 64 -3 76 -16 8 -8 17 -11 21 -8 3 4
6 -1 6 -10 0 -12 9 -17 28 -17 16 0 37 -7 48 -16 10 -8 13 -12 5 -8 -8 4 -12
3 -8 -2 3 -5 20 -11 38 -12 19 -2 42 -13 55 -27 16 -17 34 -25 57 -25 21 0 40
-7 48 -18 13 -16 13 -16 -6 -2 -19 14 -19 14 -6 -2 7 -10 26 -18 41 -18 38 0
60 -9 60 -25 0 -16 22 -25 60 -25 16 0 32 -5 36 -12 5 -7 2 -8 -7 -3 -11 6
-10 4 1 -8 8 -9 29 -17 47 -19 21 -1 36 -10 44 -25 9 -16 21 -23 43 -23 16 0
39 -9 51 -20 11 -11 37 -21 56 -23 26 -3 35 -9 37 -26 3 -18 10 -21 47 -21 35
0 45 -4 50 -20 5 -14 15 -20 37 -20 20 0 37 -8 50 -25 10 -13 22 -24 26 -24
34 5 61 -4 67 -21 5 -15 15 -20 39 -20 33 0 62 -20 49 -33 -3 -4 7 -7 23 -7
33 0 77 -26 69 -41 -4 -5 10 -9 29 -9 22 0 42 -7 54 -20 16 -17 42 -27 79 -29
6 -1 15 -10 18 -21 5 -15 15 -20 42 -20 26 0 36 -5 40 -20 4 -15 14 -20 39
-20 25 0 38 -7 50 -25 13 -20 25 -25 55 -25 32 0 39 -3 39 -20 0 -16 7 -20 33
-21 17 -1 35 -1 39 0 4 0 10 -10 14 -24 5 -21 12 -25 46 -25 31 0 41 -4 45
-19 4 -14 15 -21 42 -23 26 -2 39 -9 46 -25 8 -19 18 -23 52 -23 36 0 43 -3
43 -20 0 -15 7 -20 29 -20 42 0 61 -10 61 -31 0 -17 8 -19 65 -19 57 0 65 2
65 19 0 21 19 31 61 31 22 0 29 5 29 20 0 17 7 20 43 20 34 0 44 4 52 23 7 16
20 23 46 25 27 2 38 9 42 23 4 15 14 19 45 19 34 0 41 3 44 23 2 18 10 23 46
25 34 3 42 7 42 23 0 16 7 19 45 19 38 0 45 3 45 20 0 11 5 21 10 21 6 1 15 3
20 4 6 1 21 3 34 4 15 1 27 9 31 21 5 16 15 20 46 20 32 0 39 3 39 20 0 11 6
21 13 22 6 0 17 2 22 3 6 2 20 3 33 4 12 0 22 7 22 15 0 17 22 26 61 26 19 0
29 5 29 14 0 18 8 24 46 30 16 3 35 15 43 26 9 14 24 20 48 20 26 0 36 5 40
19 3 13 17 21 43 25 24 4 45 15 55 29 8 12 18 21 20 20 17 -9 65 -1 65 11 0
17 22 26 60 26 22 0 29 5 32 21 2 17 11 23 37 26 19 2 45 12 56 23 12 11 35
20 53 20 22 0 32 5 32 16 0 8 5 12 10 9 6 -3 10 0 10 7 0 8 13 15 32 16 35 3
43 8 43 25 0 6 18 13 40 15 48 5 75 18 75 37 0 10 11 15 34 15 20 0 39 7 47
18 13 16 13 16 -6 2 -19 -14 -19 -14 -6 2 8 11 27 18 47 18 18 0 36 5 39 10 4
6 11 8 16 5 5 -4 9 1 9 9 0 14 19 23 63 30 9 1 20 6 24 11 4 4 1 5 -7 1 -8 -4
-6 0 4 8 11 9 37 16 58 16 31 0 38 4 38 20 0 19 20 29 67 33 12 0 20 3 18 6
-12 11 21 31 51 31 28 0 36 5 44 25 5 14 13 25 17 24 35 -6 65 3 70 21 4 16
14 20 49 20 37 0 44 3 44 20 0 11 5 21 10 21 6 1 19 3 30 4 11 1 26 3 34 4 7
0 16 10 19 21 4 16 14 20 46 20 34 0 41 3 41 20 0 12 7 20 18 21 9 1 22 2 27
4 6 1 18 3 28 3 10 1 17 10 17 22 0 13 7 20 20 20 19 0 20 7 20 109 0 64 4
112 10 116 6 4 8 10 5 15 -3 5 2 13 10 17 12 7 17 33 21 109 3 54 5 105 6 112
1 6 10 12 20 12 16 0 18 10 18 99 0 86 3 102 19 113 14 10 19 31 24 88 5 58
10 77 26 90 16 12 21 29 23 80 2 46 7 64 16 62 16 -3 20 10 24 73 3 41 7 52
26 60 19 8 22 17 22 62 0 41 5 57 20 70 12 11 20 30 20 49 0 17 6 37 14 44 8
6 13 17 10 24 -3 8 2 16 10 19 10 4 16 18 16 36 0 37 10 62 21 55 11 -6 17 9
22 56 2 27 8 36 25 38 18 3 22 10 22 41 0 23 7 45 20 59 11 12 20 30 20 41 0
11 10 30 23 41 23 22 24 24 26 65 0 15 7 25 15 25 8 0 18 5 22 12 5 7 2 8 -7
3 -11 -6 -12 -5 -1 6 6 7 12 23 12 35 0 15 8 24 25 28 21 5 25 12 25 46 0 33
3 40 20 40 14 0 20 7 20 23 0 42 12 67 31 67 14 0 19 7 19 25 0 17 5 25 18 25
11 0 18 8 19 23 4 47 14 67 33 67 11 0 19 3 19 8 -3 20 2 32 15 32 8 0 17 7
20 16 6 15 4 15 -11 3 -17 -13 -17 -13 0 7 9 11 17 28 17 37 0 9 11 19 25 23
14 3 22 10 19 15 -6 10 11 45 20 42 16 -7 25 -1 28 19 2 13 7 21 11 18 5 -3
16 12 26 32 9 21 27 47 39 59 12 11 20 24 17 30 -6 8 8 13 27 10 4 0 10 10 14
24 4 15 13 25 24 25 12 0 20 9 22 23 2 12 9 21 16 19 7 -1 17 9 22 23 6 15 17
25 29 25 13 0 21 8 23 22 2 13 9 22 16 20 7 -1 17 9 22 23 6 15 17 25 30 25
13 0 20 7 20 20 0 11 6 20 14 20 8 0 21 9 29 20 7 10 25 24 40 29 15 6 26 16
25 22 -2 6 4 13 13 14 41 7 59 18 59 36 0 14 7 19 25 19 14 0 24 3 24 8 -4 25
4 32 41 32 22 0 39 3 39 8 -5 29 3 42 25 42 15 0 26 7 29 20 4 15 14 20 41 20
26 0 39 5 43 18 9 23 23 32 54 32 18 0 28 6 32 20 3 12 14 20 27 20 24 0 53
24 42 35 -4 5 -2 5 5 1 6 -3 14 -2 18 4 3 5 15 10 25 10 11 0 24 8 29 18 5 10
23 19 42 20 37 3 51 10 44 22 -5 9 18 32 31 29 27 -5 54 3 54 15 0 17 22 26
60 26 22 0 29 5 32 22 2 17 11 23 38 25 20 2 41 12 49 23 8 12 25 20 42 20 15
0 31 5 35 12 4 7 3 8 -4 4 -7 -4 -12 -3 -12 3 0 6 18 15 39 22 24 7 41 19 44
31 3 10 9 18 14 17 31 -5 63 3 63 16 0 18 28 31 76 34 7 1 14 10 17 21 3 12
14 20 26 20 12 0 21 6 21 14 0 15 21 26 51 26 12 0 23 10 29 25 7 17 17 25 34
25 16 0 27 7 31 20 5 15 15 20 41 20 27 0 34 4 34 20 0 15 9 22 30 26 20 4 30
13 30 24 0 10 6 18 13 17 39 -1 55 5 60 24 3 11 14 23 25 26 11 3 22 12 25 22
2 10 16 17 37 19 37 3 45 7 45 25 0 7 10 16 22 22 12 5 24 17 26 27 3 12 15
18 32 18 14 0 24 4 21 9 -4 5 12 18 33 28 22 10 42 26 44 36 3 9 14 17 25 17
14 0 22 8 24 23 2 12 10 22 18 22 8 0 19 10 25 23 5 12 18 22 27 22 10 0 18 7
18 15 0 8 4 15 10 15 5 0 23 13 40 30 17 16 35 30 40 30 6 0 9 3 9 8 -3 18 2
33 9 28 10 -6 24 4 39 29 6 11 16 19 22 18 6 -2 11 6 11 16 0 11 9 22 19 26
10 3 21 15 24 26 3 11 15 23 26 26 12 3 21 14 21 24 0 12 7 19 20 19 13 0 20
7 20 18 0 11 11 24 25 30 14 6 24 17 23 24 -2 7 7 14 20 16 13 2 22 10 22 21
0 9 5 22 12 29 7 7 8 12 3 12 -4 0 1 8 12 17 11 10 23 28 27 41 4 12 12 20 17
17 5 -4 13 5 19 19 5 14 16 26 24 26 8 0 17 13 21 30 4 16 11 30 16 30 5 0 9
7 9 16 0 8 5 12 10 9 6 -3 10 3 10 13 0 22 23 46 33 35 4 -3 7 5 7 18 0 15 8
28 22 34 12 6 23 21 25 35 2 14 12 33 24 42 11 9 22 27 24 39 2 12 14 28 25
36 11 8 20 25 20 39 0 17 5 24 20 24 14 0 20 7 20 23 0 42 12 67 31 67 14 0
19 7 19 28 0 16 9 37 19 46 11 10 22 28 25 41 3 12 15 25 26 28 15 4 20 13 20
40 0 27 5 37 20 42 18 6 27 40 21 78 -1 7 15 11 32 8 4 0 8 4 8 9 1 6 3 15 4
20 1 6 3 21 4 34 1 15 9 26 21 29 15 4 20 14 20 42 0 28 5 38 20 42 11 3 20
10 21 17 3 48 16 76 34 76 11 0 15 11 15 45 0 38 3 45 20 45 15 0 20 7 21 30
2 50 14 75 30 65 5 -4 9 -3 10 2 0 4 2 15 4 23 1 8 6 33 9 54 4 22 14 44 23
51 9 7 17 25 18 41 2 16 3 32 4 35 1 4 10 9 21 12 16 4 20 14 20 43 0 23 7 46
19 58 11 12 21 40 23 66 3 34 9 47 25 54 16 8 22 21 25 63 3 30 11 59 18 66
10 10 11 9 5 -3 -6 -11 -5 -12 4 -4 6 5 12 30 14 55 2 37 5 44 25 47 20 3 22
9 22 67 0 54 3 63 20 68 16 4 20 14 21 49 2 70 3 73 27 83 19 8 22 17 22 67 0
47 4 60 20 70 15 9 20 24 20 53 0 50 10 86 20 80 14 -9 24 18 28 75 3 50 16
75 32 65 4 -2 8 22 9 53 2 66 18 125 32 117 5 -4 9 11 10 32 1 64 9 95 29 112
15 12 19 32 21 86 3 69 13 100 30 89 5 -3 10 20 10 50 1 31 3 61 4 66 1 6 3
21 4 35 1 18 7 25 21 25 19 0 20 7 20 91 0 82 2 91 20 96 18 5 20 14 20 83 0
86 15 144 35 136 10 -4 14 20 17 100 2 86 6 108 20 118 13 10 18 30 20 90 1
44 7 81 14 87 17 14 -5 59 -28 59 -16 0 -23 11 -19 33 0 4 -10 7 -23 7 -16 0
-26 7 -29 21 -3 11 -15 23 -26 26 -12 3 -21 13 -21 23 0 12 -11 20 -36 25 -24
4 -38 13 -41 26 -3 10 -14 19 -23 19 -10 0 -21 9 -25 19 -3 10 -17 22 -30 25
-14 4 -25 13 -25 21 0 8 -7 15 -15 15 -9 0 -20 11 -25 25 -5 14 -17 25 -25 25
-9 0 -18 7 -22 15 -3 9 -20 23 -37 32 -17 9 -35 22 -41 29 -5 7 -19 14 -30 16
-11 2 -19 9 -18 15 1 6 -4 17 -12 23 -8 7 -15 9 -15 5 0 -4 -7 -2 -15 5 -8 7
-12 16 -9 21 3 5 -6 13 -20 19 -14 5 -26 16 -26 24 0 7 -11 17 -25 20 -16 4
-25 13 -25 26 0 13 -7 20 -20 20 -13 0 -20 7 -20 19 0 10 -9 21 -21 24 -11 3
-23 14 -26 25 -3 11 -13 22 -24 25 -10 3 -19 12 -19 20 0 8 -9 17 -21 20 -11
3 -23 15 -26 26 -3 12 -14 21 -24 21 -12 0 -19 7 -19 20 0 13 -7 20 -20 20
-13 0 -20 7 -20 20 0 13 -10 24 -25 30 -14 5 -25 16 -25 25 0 8 -7 15 -15 15
-8 0 -17 11 -21 25 -6 22 -15 29 -36 26 -3 0 -9 13 -13 29 -4 17 -10 28 -15
25 -5 -3 -11 -1 -14 4 -4 5 2 12 11 14 17 4 17 5 0 6 -10 0 -22 12 -27 26 -5
14 -16 25 -25 25 -9 0 -20 11 -25 25 -5 14 -15 24 -21 23 -6 -2 -13 6 -15 16
-2 17 -16 31 -37 39 -4 1 -9 10 -10 19 -2 9 -9 24 -17 34 -12 15 -12 16 -1 9
10 -5 12 -4 7 3 -4 7 -14 12 -22 12 -8 0 -14 9 -14 19 0 11 -9 23 -20 26 -11
3 -23 17 -26 30 -3 13 -14 31 -25 41 -10 9 -19 28 -19 41 0 16 -6 23 -19 23
-20 0 -31 18 -31 51 0 10 -9 24 -20 31 -11 7 -20 20 -20 29 0 9 -8 19 -19 22
-12 3 -20 17 -24 44 -5 27 -13 42 -25 45 -12 4 -18 16 -20 43 -2 23 -10 44
-23 54 -14 11 -23 33 -26 64 -3 26 -10 50 -16 54 -6 4 -7 1 -3 -8 4 -8 0 -5
-9 6 -20 24 -16 112 6 126 23 14 67 7 72 -13 4 -15 16 -18 71 -18 36 0 65 -3
65 -7 -5 -29 4 -33 65 -33 59 0 65 -2 68 -22 3 -21 9 -23 76 -26 40 -2 72 -7
72 -13 0 -6 4 -8 9 -4 6 3 13 -1 18 -9 6 -10 29 -16 73 -18 57 -3 65 -5 65
-23 0 -18 8 -20 89 -23 78 -2 89 -5 93 -22 5 -18 15 -20 92 -21 47 -1 91 -1
97 0 13 1 32 -18 33 -34 1 -6 45 -11 105 -13 94 -2 106 -5 111 -22 6 -19 16
-20 160 -20 152 0 153 0 169 -25 l16 -25 408 0 407 0 10 23 c12 26 3 24 150
26 63 0 114 4 114 9 -5 29 4 32 91 32 53 0 90 4 90 10 0 6 0 13 -1 18 -1 12
42 20 113 21 38 1 67 4 67 9 -5 28 4 32 66 32 37 0 65 4 65 10 0 6 0 13 -1 17
0 12 40 21 95 22 27 1 46 4 43 8 -15 14 18 33 57 33 32 0 48 6 66 25 17 18 34
25 62 25 27 0 38 4 38 15 0 8 1 15 3 16 1 0 22 3 46 6 27 3 51 13 60 25 16 19
36 26 82 27 18 1 28 8 32 21 4 16 14 20 45 20 31 0 42 4 47 19 4 14 19 22 50
27 25 3 43 10 40 14 -7 12 13 23 55 30 21 3 35 11 35 20 0 13 64 34 74 24 2
-2 9 6 15 19 12 22 15 23 60 26 15 1 27 9 31 21 5 16 15 20 46 20 32 0 39 4
39 19 0 21 19 31 60 31 19 0 29 6 33 20 4 15 14 20 41 20 30 0 37 4 42 25 4
16 13 25 26 25 21 0 51 24 41 34 -4 3 10 6 30 6 20 0 37 4 37 9 0 19 32 41 61
41 22 0 29 5 29 20 0 16 7 20 35 20 28 0 33 3 28 17 -4 10 -2 14 4 10 6 -4 13
0 17 8 3 8 18 15 32 15 15 0 24 3 21 7 -13 13 16 33 49 33 23 0 34 5 34 15 0
8 14 21 30 30 17 9 30 20 30 25 0 5 17 13 38 16 26 4 41 13 48 27 5 12 16 22
24 23 41 3 54 6 43 11 -7 2 -13 9 -13 14 0 6 4 8 9 4 5 -3 12 -1 16 5 3 5 15
10 26 10 17 0 24 11 20 33 -1 6 21 11 40 9 4 -1 19 10 33 23 15 14 36 25 47
25 10 0 18 3 18 8 -4 21 3 32 20 32 10 0 29 11 42 25 13 13 34 25 47 25 15 0
22 6 22 20 0 14 7 20 21 20 12 0 30 11 41 25 11 14 30 25 43 25 14 0 25 7 28
20 3 12 14 20 26 20 12 0 22 5 22 10 1 6 2 15 3 22 0 6 12 13 26 15 14 3 32 6
40 7 8 2 15 9 15 17 0 8 10 15 23 17 12 2 23 8 23 13 1 5 2 15 3 22 0 6 13 13
27 15 17 2 29 11 32 23 3 10 13 19 22 19 9 0 26 11 37 25 11 14 28 25 39 25
17 0 24 11 20 33 0 4 10 7 24 7 18 0 25 5 25 20 0 11 3 20 8 21 31 3 58 11 67
21 7 8 6 9 -5 3 -13 -8 -13 -7 -1 8 7 9 24 17 37 17 14 0 24 6 24 15 0 8 11
20 24 27 14 7 25 18 24 23 0 6 9 14 20 20 11 5 23 17 25 27 3 11 15 18 31 18
14 0 26 5 26 11 0 6 7 9 14 6 10 -4 13 -1 10 8 -4 9 3 16 20 21 14 3 26 13 26
20 0 8 11 19 24 25 13 6 27 20 29 30 3 11 12 19 20 19 8 0 17 9 20 20 3 14 14
20 31 20 14 0 25 3 25 8 -4 22 4 32 36 42 19 6 33 16 29 21 -3 5 8 12 25 15
22 5 31 12 31 26 0 11 9 22 20 25 10 3 22 14 25 24 4 10 15 19 26 19 12 0 19
7 19 20 0 13 10 24 25 30 14 5 25 16 25 25 0 9 9 15 26 15 15 0 23 4 19 10 -8
13 14 42 26 35 4 -3 15 7 23 22 8 15 17 27 20 26 16 -7 34 -1 40 13 4 10 2 13
-6 8 -7 -4 -8 -3 -4 4 4 7 13 12 20 12 7 0 23 11 36 25 13 14 32 25 42 25 11
0 18 7 18 19 0 12 9 21 25 25 16 4 25 13 25 26 0 13 7 20 20 20 18 0 25 10 21
33 -1 6 22 11 42 8 4 0 7 10 7 24 0 18 5 25 20 25 13 0 20 7 20 20 0 14 7 20
24 20 17 0 26 7 30 25 4 16 13 25 26 25 11 0 19 5 17 12 -1 6 9 17 23 25 14 7
24 19 22 28 -3 13 9 20 31 16 4 -1 13 10 19 24 6 14 17 25 25 25 7 0 17 10 22
22 5 13 12 22 17 22 13 -2 54 14 54 21 0 4 -6 3 -12 -1 -9 -5 -9 -2 1 9 7 9
24 17 37 17 19 0 24 5 24 25 0 17 6 25 18 25 41 0 41 83 0 96 -10 3 -18 14
-18 25 0 10 -3 18 -7 18 -22 -4 -32 3 -35 24 -2 12 -9 21 -15 20 -7 -2 -20 13
-29 32 -9 20 -21 32 -27 28 -6 -4 -8 0 -4 10 4 11 1 17 -8 17 -8 0 -14 5 -12
12 1 7 -8 17 -20 23 -14 6 -23 19 -23 32 0 16 -6 23 -20 23 -18 0 -25 10 -21
33 0 4 -8 7 -19 7 -12 0 -22 9 -26 24 -3 13 -14 26 -25 29 -10 3 -19 12 -19
20 0 8 -11 18 -25 21 -17 4 -25 12 -23 24 2 11 -5 18 -19 20 -13 2 -23 12 -25
25 -2 12 -9 21 -15 20 -7 -2 -14 6 -18 16 -3 10 -26 39 -50 64 -24 26 -47 57
-51 71 -3 13 -14 26 -25 29 -10 3 -19 12 -19 21 0 9 -8 16 -19 16 -11 0 -21 9
-25 24 -3 13 -15 26 -26 29 -11 3 -20 12 -20 20 0 8 -11 18 -25 21 -17 4 -25
12 -23 24 2 11 -5 18 -19 20 -15 2 -23 10 -23 23 0 12 -7 19 -20 19 -18 0 -25
10 -21 33 1 4 -10 12 -24 17 -14 5 -25 16 -25 25 0 8 -9 15 -19 15 -12 0 -23
11 -29 28 -6 15 -11 20 -11 12 -1 -12 -3 -12 -10 -2 -4 7 -17 14 -29 15 -11 0
-18 5 -16 9 3 4 -11 17 -30 29 -20 12 -33 25 -30 30 3 5 -6 13 -20 19 -14 5
-26 16 -26 25 0 9 -9 15 -24 15 -17 0 -26 7 -30 25 -5 21 -12 25 -41 25 -32 0
-40 8 -36 33 0 4 -10 7 -24 7 -18 0 -25 5 -25 19 0 16 -25 31 -62 35 -3 1 -10
5 -15 10 -5 6 -2 6 7 1 13 -8 13 -6 2 7 -8 9 -26 18 -40 20 -15 2 -27 8 -27
13 0 22 -18 35 -45 35 -20 0 -31 6 -35 20 -4 11 -15 20 -27 20 -11 0 -22 8
-25 19 -4 14 -15 21 -42 23 -26 2 -39 9 -46 26 -7 15 -18 22 -37 22 -16 0 -37
9 -48 20 -11 11 -35 23 -52 27 -18 3 -33 14 -35 25 -4 13 -15 18 -40 18 -20 0
-32 4 -28 10 3 6 -1 10 -9 10 -9 0 -16 5 -16 10 0 6 -15 10 -33 10 -23 0 -38
7 -51 25 -13 18 -28 25 -51 25 -32 0 -61 20 -48 33 3 4 -12 7 -34 7 -29 0 -48
7 -67 25 -21 19 -38 25 -72 25 -37 0 -47 4 -51 20 -5 17 -14 20 -68 20 -52 0
-65 4 -81 22 -16 19 -16 20 -1 9 15 -12 17 -12 11 2 -5 13 -24 17 -87 19 -54
2 -82 7 -82 15 0 20 -8 22 -100 24 -72 1 -94 5 -111 20 -18 17 -43 20 -195 25
-154 5 -176 7 -195 25 -18 17 -36 19 -181 19 -131 0 -163 3 -173 15 -9 10 -9
15 -1 15 6 0 11 7 11 15 0 8 -6 15 -12 15 -10 0 -10 2 -1 8 7 5 14 20 15 35 2
18 8 27 19 27 12 0 19 12 24 39 4 27 13 41 26 44 11 3 19 14 19 27 0 13 8 24
20 27 12 3 20 14 21 29 3 43 15 68 29 59 12 -7 19 7 22 45 2 22 9 35 20 38 11
2 18 14 18 28 0 18 6 24 21 24 15 0 19 5 15 15 -3 8 -1 15 4 15 6 0 10 14 10
30 0 23 4 30 20 30 15 0 20 7 21 30 2 51 4 55 16 55 16 0 26 12 30 37 2 12 12
31 22 43 17 19 26 37 30 60 1 6 11 19 21 30 18 19 20 23 20 45 0 6 8 10 18 10
17 0 21 15 25 78 0 6 9 12 19 12 17 0 24 20 19 58 -1 6 3 12 9 12 6 0 8 5 5
10 -3 5 3 10 14 10 20 0 25 19 20 67 0 4 8 10 19 14 13 5 21 21 26 47 4 28 12
43 26 47 17 6 26 34 21 67 0 4 8 12 19 18 13 7 20 21 20 40 0 20 8 35 25 46
15 10 25 26 25 39 0 34 10 55 26 55 8 0 14 10 14 25 0 36 20 74 36 68 11 -4
14 6 14 41 0 43 6 51 33 47 6 -1 11 37 8 65 -2 13 30 41 38 34 3 -3 7 14 9 36
2 30 8 43 21 47 12 3 20 18 25 46 4 26 13 45 24 49 12 5 18 20 19 50 1 29 9
49 22 60 14 12 21 31 23 61 1 33 7 45 20 49 10 2 18 9 19 16 2 21 9 81 10 95
1 8 11 16 21 19 14 3 18 15 19 48 1 24 3 49 4 54 1 6 3 15 4 21 0 6 7 9 14 6
9 -3 14 6 16 27 2 17 4 42 6 56 2 14 3 30 4 37 1 6 10 15 21 18 18 6 20 15 20
80 0 61 3 76 19 87 15 11 19 30 23 99 5 91 11 110 31 105 7 -1 8 -1 4 2 -4 2
-4 9 2 15 5 7 10 62 12 122 1 61 7 116 12 123 5 6 6 12 3 12 -4 0 0 7 8 16 18
17 19 51 18 554 0 528 0 535 -20 558 -15 17 -19 41 -21 134 -2 89 -6 117 -19
132 -9 11 -11 16 -4 12 6 -4 12 -2 12 3 0 6 -6 11 -14 11 -19 0 -24 20 -26
110 0 41 -6 80 -12 85 -8 7 -9 6 -3 -5 5 -9 4 -12 -1 -7 -5 5 -10 13 -10 18
-1 5 -3 11 -4 14 -6 12 -8 29 -9 91 0 36 -5 63 -10 60 -21 -14 -40 48 -41 135
0 28 -5 38 -20 42 -11 3 -20 9 -19 14 1 4 1 32 0 61 -1 35 -5 52 -14 52 -12 0
-39 58 -36 77 6 33 -3 61 -21 66 -11 3 -20 9 -19 14 1 4 1 31 0 59 -1 43 -4
53 -21 57 -11 3 -21 14 -21 26 -1 12 -2 29 -3 39 0 9 -9 20 -19 24 -10 4 -16
12 -12 17 3 5 1 12 -5 16 -5 3 -10 26 -10 51 0 31 -4 44 -14 44 -16 0 -26 21
-26 55 0 13 -10 29 -25 39 -14 9 -25 22 -24 29 3 29 -2 68 -8 64 -12 -8 -28
16 -31 46 -2 16 -15 45 -28 64 -22 32 -29 53 -25 75 0 5 -4 7 -11 5 -7 -1 -12
3 -13 10 0 6 -3 15 -7 19 -5 4 -8 15 -8 23 0 9 -9 22 -20 29 -12 7 -18 17 -15
22 3 5 1 11 -5 15 -5 3 -10 14 -10 23 0 10 -9 23 -20 30 -14 8 -20 23 -20 46
0 25 -5 35 -20 39 -14 3 -21 17 -26 45 -4 28 -12 42 -25 45 -15 4 -19 14 -19
46 0 35 -3 41 -21 41 -13 0 -23 10 -30 30 -6 17 -15 30 -21 30 -5 0 -7 4 -3 9
3 5 1 12 -5 16 -5 3 -10 15 -10 25 0 10 -9 21 -19 25 -13 4 -22 19 -26 45 -5
29 -12 40 -25 40 -11 0 -20 10 -24 30 -3 17 -11 29 -18 28 -7 -2 -13 2 -14 7
-8 53 -18 75 -35 75 -12 0 -19 7 -19 20 0 12 -7 20 -17 20 -9 0 -14 3 -11 6 4
3 0 17 -7 31 -8 15 -12 30 -9 35 3 4 -7 13 -22 18 -15 6 -24 13 -20 17 3 4 -5
19 -20 34 -14 15 -26 30 -25 33 5 30 -2 45 -21 48 -15 2 -24 11 -26 26 -2 14
-10 22 -23 22 -10 0 -18 3 -18 8 5 31 -2 51 -18 45 -11 -5 -14 -3 -8 6 4 8 2
17 -6 22 -8 4 -15 13 -15 19 -1 5 -2 15 -3 20 0 6 -10 10 -21 10 -14 0 -20 7
-20 23 0 14 -9 26 -22 32 -13 6 -24 20 -26 33 -2 12 -12 28 -23 35 -10 6 -19
22 -19 34 0 16 -6 23 -19 23 -11 0 -22 9 -26 19 -3 11 -12 22 -21 25 -8 3 -19
17 -24 31 -6 15 -15 23 -20 20 -13 -8 -26 26 -29 72 -1 7 -6 12 -13 10 -7 -1
-17 7 -22 19 -5 11 -19 25 -30 30 -12 5 -20 16 -18 23 1 7 -7 15 -18 18 -12 3
-26 16 -31 29 -5 13 -14 23 -20 22 -6 -2 -13 4 -14 14 -2 9 -8 24 -14 35 -8
14 -11 14 -11 3 0 -8 -7 0 -15 18 -8 17 -19 32 -25 32 -5 0 -10 7 -10 15 0 8
-4 15 -10 15 -5 0 -10 7 -10 15 0 9 -11 20 -25 25 -15 6 -25 17 -25 29 0 10
-9 21 -20 24 -11 3 -20 12 -20 20 0 9 -10 17 -22 19 -13 2 -23 10 -23 18 0 8
-10 20 -23 26 -13 6 -23 14 -23 18 2 20 -1 25 -18 31 -11 3 -23 15 -26 26 -4
10 -12 19 -19 19 -7 0 -18 12 -24 26 -7 14 -16 22 -22 19 -5 -3 -12 6 -16 20
-3 14 -12 25 -19 25 -8 0 -16 9 -20 19 -3 11 -13 25 -22 33 -14 11 -16 11 -8
-1 5 -10 4 -12 -4 -7 -6 4 -9 11 -6 16 3 5 -5 16 -17 25 -13 8 -22 18 -20 21
2 3 -9 15 -23 26 -21 16 -24 23 -13 29 10 7 9 9 -5 9 -20 0 -69 45 -80 73 -3
9 -13 17 -20 17 -8 0 -19 11 -25 25 -6 14 -18 25 -27 25 -8 0 -15 7 -15 15 0
9 -8 19 -17 22 -10 4 -40 28 -67 55 -26 26 -52 48 -58 48 -5 0 -8 7 -6 16 2
10 -5 18 -15 20 -35 5 -47 13 -41 29 4 10 0 15 -10 15 -9 0 -16 5 -16 11 0 5
-5 7 -12 3 -6 -4 -8 -3 -4 4 4 6 -9 21 -29 35 -19 13 -32 27 -29 30 4 3 -5 9
-20 13 -14 3 -26 12 -26 19 0 8 -9 16 -19 20 -11 3 -23 15 -26 26 -4 10 -15
19 -25 19 -12 0 -22 9 -26 25 -3 13 -9 24 -13 23 -21 -2 -31 4 -31 21 0 13 -8
21 -22 23 -13 2 -22 9 -20 16 1 7 -9 17 -23 22 -15 6 -25 17 -25 30 0 14 -7
20 -21 20 -12 0 -23 8 -26 20 -3 11 -11 20 -18 20 -7 0 -23 11 -36 25 -13 13
-30 25 -36 25 -7 0 -13 5 -13 11 0 16 -31 38 -53 39 -9 0 -16 3 -16 8 4 22 -3
32 -22 32 -12 0 -23 8 -26 19 -3 11 -13 21 -24 24 -11 3 -19 14 -19 26 0 15
-6 21 -21 21 -12 0 -23 8 -26 20 -3 11 -13 20 -22 20 -10 0 -26 7 -37 15 -19
15 -19 15 1 9 20 -6 20 -5 1 10 -18 14 -38 20 -58 17 -4 0 -9 8 -13 18 -3 10
-17 23 -30 29 -14 7 -24 17 -23 24 2 7 -4 12 -12 13 -8 0 -19 10 -25 23 -5 12
-18 22 -27 22 -10 0 -18 4 -18 9 0 18 -32 41 -56 41 -14 0 -22 4 -19 10 3 6 1
10 -5 10 -6 0 -8 5 -5 10 3 6 -2 10 -13 10 -10 0 -28 10 -40 23 -11 12 -28 28
-37 35 -8 7 -13 17 -10 23 4 5 -5 9 -19 9 -17 0 -26 6 -26 15 0 8 -18 22 -40
31 -22 9 -40 22 -40 30 0 8 -10 14 -25 14 -18 0 -25 5 -25 19 0 12 -9 21 -25
25 -16 4 -25 13 -25 26 0 13 -7 20 -20 20 -11 0 -21 -1 -23 -2 -6 -6 -35 27
-30 35 2 4 -3 8 -11 8 -9 1 -22 2 -28 3 -7 0 -14 11 -16 24 -3 16 -10 22 -28
22 -17 0 -24 5 -24 20 0 13 -7 20 -20 20 -21 0 -62 34 -53 44 4 3 -6 6 -21 6
-19 0 -29 6 -33 19 -3 11 -15 21 -26 23 -12 2 -24 12 -27 23 -5 20 -9 22 -53
29 -12 1 -22 9 -22 17 0 8 -10 15 -21 17 -12 2 -26 14 -32 28 -7 13 -15 23
-19 22 -15 -4 -53 13 -53 23 0 6 5 7 12 3 7 -4 8 -3 4 4 -4 7 -16 12 -26 12
-29 0 -50 11 -50 26 0 8 -4 15 -10 15 -5 1 -16 2 -22 3 -7 0 -14 11 -16 24 -3
18 -10 22 -38 22 -22 0 -37 6 -41 16 -3 8 -16 20 -29 25 -14 5 -24 17 -24 28
0 16 -8 20 -42 23 -28 2 -42 7 -40 16 1 7 -10 17 -24 22 -14 6 -28 19 -31 30
-4 15 -14 20 -38 20 -32 0 -61 20 -48 33 3 4 -5 7 -19 7 -14 0 -33 10 -44 22
-19 22 -19 23 1 8 19 -14 19 -14 6 3 -8 10 -27 17 -47 17 -27 0 -34 4 -34 20
0 13 -7 20 -20 20 -11 0 -22 -1 -24 -2 -8 -5 -45 35 -41 43 3 4 -7 9 -22 11
-17 2 -28 9 -28 18 0 8 -9 16 -20 18 -55 8 -65 13 -65 32 0 16 -7 20 -32 21
-18 1 -37 0 -43 -1 -5 -1 -7 2 -3 6 11 11 -12 34 -34 34 -10 0 -22 8 -25 18
-9 23 -23 32 -55 32 -18 0 -29 7 -33 20 -4 13 -15 20 -31 20 -25 0 -58 23 -48
32 3 3 -9 8 -26 11 -21 5 -30 12 -30 26 0 16 -8 20 -42 23 -24 2 -43 8 -43 15
0 20 -19 31 -61 35 -6 1 -11 8 -10 17 1 11 -9 17 -31 19 -30 3 -38 11 -34 35
0 4 -9 8 -21 8 -48 3 -53 5 -63 26 -5 13 -22 24 -42 28 -18 3 -33 10 -33 16 0
6 6 7 13 3 6 -4 9 -3 4 1 -4 5 -18 11 -30 13 -12 2 -29 5 -37 6 -8 2 -16 13
-18 24 -3 17 -10 22 -33 22 -17 0 -36 8 -46 20 -10 11 -23 20 -30 20 -8 0 -18
11 -23 25 -5 14 -13 25 -17 24 -35 -6 -65 3 -70 21 -3 13 -14 20 -29 20 -39 0
-64 15 -61 35 1 6 -10 11 -24 13 -17 2 -29 11 -32 23 -3 12 -14 19 -30 19 -28
0 -61 26 -52 41 4 5 -10 9 -29 9 -25 0 -38 6 -46 20 -6 11 -20 20 -31 20 -12
0 -23 8 -26 20 -4 14 -17 22 -46 27 -27 4 -41 12 -44 24 -5 16 -20 22 -49 18
-3 0 -15 10 -26 23 -11 13 -24 24 -29 24 -5 1 -13 2 -19 3 -5 0 -10 10 -10 21
0 16 -7 20 -34 20 -23 0 -39 7 -48 19 -7 10 -28 22 -45 25 -18 4 -36 12 -39
18 -4 7 -2 8 4 4 8 -5 10 -2 6 8 -4 10 -18 16 -36 16 -21 0 -31 6 -35 20 -4
13 -14 20 -30 20 -13 0 -34 11 -47 25 -13 14 -33 25 -44 25 -12 0 -27 9 -35
21 -8 11 -23 22 -33 23 -11 1 -23 12 -29 24 -7 16 -19 22 -41 22 -31 0 -60 21
-47 33 3 4 -5 7 -19 7 -14 0 -33 10 -44 22 -10 12 -13 18 -6 14 6 -4 12 -2 12
3 0 6 -18 11 -40 11 -33 0 -40 3 -40 20 0 15 -7 20 -29 20 -29 0 -61 22 -61
41 0 5 -9 9 -21 9 -12 0 -23 8 -26 19 -4 14 -15 21 -42 23 -26 2 -39 9 -46 26
-7 16 -18 22 -43 22 -25 0 -35 5 -39 20 -3 13 -14 20 -29 20 -19 0 -24 5 -24
24 0 16 -6 23 -17 23 -50 0 -74 4 -69 11 10 16 -12 33 -42 34 -17 1 -29 5 -26
9 6 10 -36 40 -47 33 -8 -5 -24 15 -24 31 0 5 -9 11 -20 13 -51 7 -65 13 -65
27 0 8 -7 15 -15 15 -8 0 -23 9 -33 20 -9 11 -34 23 -54 27 -28 4 -38 10 -38
24 0 18 -20 25 -57 20 -14 -2 -35 33 -26 43 3 3 -5 6 -20 6 -14 0 -29 5 -32
10 -4 6 -11 8 -16 5 -5 -3 -6 1 -3 9 4 11 -3 15 -28 18 -25 2 -34 8 -36 25 -3
18 -11 22 -45 25 -28 2 -42 8 -42 17 0 8 -14 18 -32 23 -18 5 -35 13 -39 20
-5 7 -3 8 6 3 8 -5 11 -3 8 6 -2 8 -21 15 -41 17 -33 3 -42 11 -38 35 0 4 -10
8 -24 8 -47 3 -50 4 -60 27 -6 13 -19 22 -31 22 -13 0 -24 8 -27 20 -7 29 -44
27 -41 -2 1 -13 3 -33 3 -45 1 -18 7 -23 26 -23 14 0 24 -3 24 -7 -4 -27 3
-43 21 -43 17 0 20 -7 20 -39 0 -33 4 -40 25 -45 16 -4 25 -13 25 -26 0 -13 7
-20 20 -20 12 0 20 -6 19 -12 -1 -7 -1 -28 0 -45 1 -28 5 -33 25 -33 18 0 25
-6 28 -22 2 -13 10 -23 18 -23 10 0 16 -13 18 -42 3 -34 7 -42 25 -45 16 -2
22 -10 21 -25 0 -18 5 -23 23 -23 21 0 23 -5 23 -45 0 -38 3 -45 19 -45 11 0
22 -9 26 -19 3 -10 15 -21 25 -24 18 -5 27 -41 21 -79 0 -5 2 -7 7 -7 23 4 32
-4 32 -26 0 -20 5 -25 24 -25 19 0 24 -5 24 -27 0 -15 9 -34 21 -44 11 -9 21
-26 21 -37 0 -13 8 -22 22 -24 13 -2 23 -11 24 -23 5 -37 10 -54 19 -62 4 -4
5 -2 1 5 -4 6 -3 12 3 12 6 0 14 -15 19 -32 6 -22 14 -32 25 -30 21 3 27 -9
29 -55 1 -21 3 -32 6 -25 6 20 32 -6 32 -33 0 -16 8 -25 25 -29 15 -4 25 -14
26 -26 2 -33 4 -38 13 -47 5 -5 6 -3 2 5 -4 6 -3 12 3 12 6 0 13 -15 17 -34 4
-26 12 -36 31 -41 14 -3 23 -11 20 -18 -3 -7 6 -23 19 -36 14 -14 24 -35 24
-51 0 -22 5 -29 23 -32 14 -2 23 -11 25 -25 2 -13 10 -23 19 -23 10 0 13 -6 9
-16 -3 -8 -2 -12 4 -9 6 4 10 -7 10 -24 0 -24 4 -31 20 -31 15 0 22 -9 26 -30
4 -16 11 -27 16 -24 14 9 28 -15 28 -48 0 -18 7 -29 20 -33 11 -3 20 -14 20
-23 0 -10 10 -22 23 -27 21 -10 23 -15 26 -62 1 -13 7 -23 16 -23 9 0 20 -11
25 -25 5 -14 17 -25 25 -25 9 0 13 -4 10 -10 -3 -5 -1 -10 4 -10 6 0 11 -13
11 -30 0 -23 4 -30 20 -30 15 0 20 -7 20 -25 0 -22 5 -27 26 -24 13 1 24 -26
24 -58 0 -26 4 -33 20 -33 15 0 20 -7 20 -26 0 -19 4 -25 15 -20 18 6 35 -22
35 -58 0 -19 5 -26 20 -26 15 0 20 -7 20 -25 0 -18 5 -25 20 -25 19 0 24 -10
32 -65 2 -11 10 -20 18 -20 8 0 16 -10 18 -22 2 -15 10 -23 23 -23 11 0 18 -4
14 -9 -3 -5 -1 -12 5 -16 5 -3 10 -19 10 -36 0 -20 5 -29 16 -29 9 0 18 -9 21
-20 3 -10 14 -22 24 -25 11 -4 17 -10 14 -15 -3 -5 -1 -11 5 -15 5 -3 10 -17
10 -31 0 -17 5 -24 20 -24 15 0 20 -7 20 -25 0 -18 5 -25 18 -25 10 0 19 -6
20 -12 1 -7 4 -24 6 -38 2 -14 5 -28 5 -32 1 -5 10 -8 21 -8 12 0 20 -7 20
-16 0 -9 9 -23 20 -32 10 -10 21 -30 22 -47 2 -20 10 -32 23 -35 11 -3 21 -16
23 -28 2 -14 10 -22 22 -22 15 0 19 -9 22 -42 2 -30 8 -43 18 -43 8 0 19 -10
25 -22 5 -13 18 -23 27 -23 15 0 18 -9 18 -45 0 -41 2 -45 24 -45 18 0 25 -6
28 -22 2 -13 10 -23 18 -23 8 0 16 -9 18 -20 7 -51 13 -63 32 -68 12 -3 20
-13 20 -26 0 -14 6 -21 20 -21 11 0 19 -3 19 -7 -1 -5 -1 -26 0 -48 1 -30 4
-36 11 -25 6 10 10 11 10 3 0 -7 7 -13 15 -13 8 0 15 -9 15 -20 0 -11 7 -20
15 -20 8 0 18 -12 21 -27 4 -15 18 -37 31 -49 12 -12 23 -31 23 -43 0 -14 6
-21 20 -21 16 0 20 -7 20 -31 0 -16 4 -28 9 -24 12 7 41 -34 41 -57 0 -11 8
-18 20 -18 14 0 20 -7 20 -23 0 -12 9 -28 19 -34 11 -7 22 -26 26 -42 3 -17
14 -33 24 -36 9 -3 17 -14 18 -24 1 -11 11 -29 22 -40 12 -12 21 -32 21 -46 0
-19 5 -25 23 -25 15 0 23 -6 24 -17 2 -28 12 -65 19 -72 4 -3 4 3 1 14 -7 20
-7 20 8 1 8 -11 15 -27 15 -37 0 -10 11 -20 25 -23 14 -4 25 -12 24 -19 -5
-40 3 -65 21 -70 12 -3 20 -14 20 -25 0 -14 8 -22 23 -24 18 -2 23 -10 25 -45
3 -35 7 -43 23 -43 12 0 19 -7 19 -20 0 -11 7 -20 15 -20 18 0 35 -31 35 -64
0 -19 5 -26 20 -26 14 0 20 -7 20 -21 0 -12 9 -30 21 -40 18 -15 25 -31 28
-61 1 -4 10 -9 21 -13 11 -3 19 -9 19 -13 -1 -4 -1 -21 0 -39 1 -25 6 -32 24
-35 14 -2 22 -10 22 -22 0 -10 10 -22 23 -27 18 -7 22 -16 22 -49 0 -33 3 -40
20 -40 11 0 21 -6 22 -12 0 -7 2 -17 3 -23 2 -5 3 -20 4 -32 1 -14 7 -23 17
-23 9 0 18 -9 21 -19 3 -11 13 -21 22 -24 18 -4 36 -61 25 -78 -3 -5 6 -9 20
-9 14 0 25 -3 25 -7 -1 -5 -1 -24 0 -44 1 -28 6 -38 21 -42 12 -3 20 -14 20
-25 0 -14 8 -22 23 -24 12 -2 22 -10 23 -18 1 -8 2 -25 2 -37 1 -12 11 -24 22
-28 15 -5 20 -15 20 -45 0 -32 4 -39 23 -42 15 -2 23 -11 25 -29 2 -17 11 -29
23 -32 14 -4 19 -14 19 -40 0 -29 4 -36 23 -39 21 -3 23 -7 26 -64 1 -13 9
-24 21 -27 16 -4 20 -14 20 -46 0 -37 2 -41 25 -41 21 0 25 -5 25 -32 0 -17 3
-28 7 -25 12 12 33 -15 33 -44 0 -19 6 -30 20 -34 11 -3 21 -12 22 -18 0 -7 2
-16 3 -22 2 -5 3 -18 4 -27 1 -11 9 -18 21 -18 11 0 19 -3 19 -7 -1 -5 -1 -24
0 -44 1 -31 5 -38 26 -43 14 -4 25 -12 24 -19 -5 -40 3 -65 21 -70 14 -3 20
-14 20 -32 0 -14 4 -24 10 -20 13 8 42 -39 34 -58 -4 -12 2 -20 19 -26 20 -8
26 -18 29 -48 2 -24 8 -38 17 -38 14 0 20 -17 24 -60 1 -11 11 -22 22 -25 15
-5 21 -16 23 -48 3 -34 7 -42 23 -42 16 0 19 -7 19 -45 0 -41 2 -45 25 -45 14
0 24 -3 24 -7 -1 -5 -1 -24 0 -44 1 -28 6 -38 21 -42 16 -4 20 -14 20 -46 0
-37 2 -41 25 -41 14 0 24 -3 24 -7 -1 -5 -1 -24 0 -44 1 -28 6 -38 21 -42 16
-4 20 -14 20 -46 0 -37 2 -41 25 -41 23 0 25 -4 25 -45 0 -38 3 -45 20 -45 17
0 20 -7 20 -45 0 -41 2 -45 25 -45 23 0 25 -4 25 -45 0 -38 3 -45 20 -45 17 0
20 -7 20 -44 0 -39 3 -45 23 -48 22 -3 23 -8 26 -70 1 -19 5 -26 15 -22 20 8
25 -4 27 -69 1 -31 5 -54 8 -52 9 5 42 -21 40 -31 -6 -34 3 -62 21 -67 11 -3
20 -9 19 -14 -1 -4 -1 -32 0 -60 1 -46 4 -53 21 -53 20 0 27 -16 32 -75 2 -16
7 -28 12 -27 16 6 26 -22 26 -74 0 -43 3 -53 19 -57 11 -3 20 -13 21 -23 0
-11 3 -44 6 -74 3 -30 6 -60 6 -67 1 -7 4 -12 7 -11 28 3 31 -6 31 -92 0 -81
2 -90 19 -90 16 0 18 -10 19 -105 1 -97 -1 -105 -19 -105 -18 0 -19 -8 -19
-145 0 -136 -1 -145 -22 -165 -17 -16 -22 -33 -25 -88 -4 -91 -4 -94 -19 -88
-17 6 -23 -15 -25 -83 -2 -43 -6 -55 -21 -59 -14 -3 -18 -14 -18 -48 0 -23 -4
-45 -10 -49 -5 -3 -7 -12 -3 -20 3 -10 -2 -15 -16 -15 -18 0 -21 -6 -21 -46 0
-37 -4 -47 -20 -51 -14 -4 -20 -14 -21 -37 -1 -34 -3 -41 -14 -73 -4 -13 -11
-21 -15 -18 -13 8 -19 -7 -21 -53 -2 -33 -7 -42 -21 -42 -13 0 -18 -8 -19 -27
-2 -54 -4 -58 -26 -61 -20 -3 -23 -9 -23 -48 0 -37 -3 -44 -19 -44 -16 0 -20
-8 -23 -42 -2 -36 -7 -44 -25 -46 -19 -3 -23 -10 -24 -40 -1 -20 -1 -40 0 -44
0 -5 -8 -8 -19 -8 -17 0 -20 -7 -20 -40 0 -39 -8 -47 -42 -41 -8 1 -12 -37 -8
-72 1 -9 -2 -17 -7 -16 -23 4 -33 -3 -33 -26 0 -14 -4 -25 -10 -25 -5 0 -10
-8 -11 -17 0 -15 -2 -15 -9 2 -5 11 -9 17 -11 13 -1 -5 -3 -12 -4 -18 -1 -5
-3 -23 -4 -40 -1 -23 -6 -30 -21 -30 -15 0 -20 -7 -21 -30 -2 -52 -4 -55 -24
-55 -13 0 -21 -8 -23 -22 -2 -15 -10 -23 -23 -23 -16 0 -19 -7 -19 -45 0 -38
-3 -45 -20 -45 -11 0 -20 -6 -20 -13 0 -8 -11 -24 -24 -36 -14 -13 -26 -38
-28 -55 -2 -19 -8 -30 -16 -28 -7 1 -17 -9 -22 -23 -6 -15 -17 -25 -30 -25
-15 0 -20 -7 -21 -30 -2 -50 -3 -53 -24 -60 -11 -4 -20 -16 -20 -26 0 -12 -8
-20 -22 -22 -18 -3 -23 -10 -23 -32 0 -20 -7 -34 -22 -42 -13 -7 -23 -22 -23
-33 0 -13 -8 -21 -22 -23 -15 -2 -23 -10 -23 -23 0 -17 -11 -24 -32 -20 -5 0
-8 -9 -8 -22 0 -14 -9 -26 -22 -32 -16 -7 -24 -20 -26 -44 -2 -23 -9 -35 -23
-38 -10 -3 -19 -14 -19 -24 0 -14 -7 -19 -25 -19 -20 0 -25 -5 -25 -25 0 -18
-5 -25 -20 -25 -13 0 -20 -7 -20 -20 0 -15 -7 -20 -25 -20 -20 0 -25 -5 -25
-24 0 -13 -3 -32 -6 -41 -5 -13 -8 -14 -15 -3 -6 9 -10 3 -15 -20 -6 -31 -35
-58 -48 -45 -5 6 -10 -20 -7 -39 0 -5 -8 -8 -19 -8 -18 0 -25 -11 -21 -33 1
-5 -7 -11 -18 -14 -11 -3 -23 -14 -26 -24 -4 -10 -15 -19 -25 -19 -11 0 -20
-10 -24 -25 -4 -14 -13 -25 -20 -25 -8 0 -16 -9 -19 -20 -3 -12 -14 -20 -26
-20 -14 0 -21 -6 -21 -18 0 -11 -11 -24 -25 -30 -16 -7 -23 -17 -19 -27 5 -11
-1 -15 -19 -15 -19 0 -26 -6 -29 -22 -2 -13 -9 -23 -16 -23 -15 0 -33 -26 -26
-37 3 -4 -6 -8 -20 -8 -19 0 -26 -5 -26 -20 0 -13 -7 -20 -20 -20 -15 0 -20
-7 -20 -25 0 -20 -5 -25 -25 -25 -18 0 -25 -5 -25 -20 0 -13 -7 -20 -19 -20
-13 0 -21 -8 -23 -22 -2 -15 -11 -24 -25 -26 -15 -2 -23 -10 -23 -23 0 -12 -7
-19 -20 -19 -11 0 -21 -4 -21 -10 -1 -5 -2 -16 -3 -22 0 -7 -11 -14 -22 -16
-12 -2 -24 -12 -27 -23 -3 -10 -14 -20 -26 -20 -12 -1 -27 -2 -33 -3 -7 0 -17
-11 -23 -23 -5 -13 -18 -23 -27 -23 -11 0 -18 -8 -18 -20 0 -13 -7 -20 -20
-20 -12 0 -25 -10 -32 -25 -6 -14 -16 -25 -22 -25 -6 0 -17 -9 -24 -20 -8 -14
-23 -20 -47 -20 -28 0 -35 -4 -35 -19 0 -11 -12 -23 -29 -31 -19 -7 -28 -17
-24 -26 4 -11 -5 -14 -36 -14 -34 0 -41 -3 -41 -20 0 -11 -6 -21 -12 -22 -7 0
-17 -2 -23 -3 -5 -2 -20 -3 -32 -4 -16 -1 -23 -7 -23 -21 0 -16 -7 -20 -34
-20 -24 0 -39 -7 -49 -21 -13 -18 -34 -24 -95 -28 -7 -1 -10 -6 -6 -12 11 -19
-18 -29 -88 -29 -57 0 -70 -3 -80 -20 -13 -20 -24 -20 -476 -20 -445 0 -464 1
-490 20 -23 17 -45 20 -161 21 -122 1 -134 3 -138 20 -4 15 -15 19 -57 20
-143 2 -181 8 -197 28 -14 17 -30 20 -110 22 -85 2 -124 12 -112 32 2 4 -22 8
-54 8 -32 1 -71 3 -86 5 -33 3 -59 22 -51 35 3 5 -26 9 -65 9 -74 0 -126 13
-116 30 4 6 -18 11 -57 12 -35 0 -67 2 -73 3 -5 2 -17 3 -26 4 -9 0 -19 10
-22 21 -4 17 -14 20 -71 21 -81 2 -82 2 -93 13 -5 5 -2 6 7 1 13 -7 13 -6 0 8
-10 10 -38 17 -80 19 -56 3 -66 6 -75 26 -8 19 -18 22 -72 23 -78 2 -79 2 -90
13 -5 5 -2 6 7 1 13 -7 13 -6 0 8 -10 10 -37 17 -76 19 -57 3 -88 17 -82 35 2
5 -27 9 -63 11 -57 2 -68 6 -72 22 -4 17 -14 20 -59 21 -29 1 -56 1 -60 0 -4
0 -10 10 -14 24 -6 23 -10 25 -69 25 -54 0 -63 3 -68 20 -4 16 -14 20 -52 20
-52 0 -85 14 -85 35 0 12 -14 15 -59 15 -51 0 -61 3 -66 20 -4 13 -15 20 -33
20 -60 0 -100 12 -105 31 -4 15 -14 19 -50 19 -30 0 -49 6 -58 17 -10 11 -10
14 -1 9 6 -4 12 -2 12 3 0 7 -25 11 -61 11 -52 0 -62 3 -66 20 -3 11 -10 20
-17 21 -6 0 -27 3 -46 5 -19 3 -40 6 -47 6 -7 1 -12 4 -11 7 3 26 -6 31 -52
31 -43 0 -50 3 -50 20 0 15 -7 20 -27 21 -46 1 -61 6 -84 28 -15 13 -36 21
-60 21 -35 0 -66 20 -52 33 3 4 -5 7 -19 7 -52 0 -88 12 -86 29 3 16 -1 18
-57 20 -20 0 -42 9 -53 21 -10 11 -33 20 -51 22 -32 2 -46 12 -46 33 0 6 -11
11 -25 13 -62 6 -90 14 -90 23 0 6 5 7 12 3 6 -4 8 -3 5 4 -8 12 -112 11 -124
-2 -5 -5 -3 -6 5 -2 6 4 12 3 12 -2 0 -14 -26 -22 -68 -22 -29 0 -39 -5 -47
-22 -10 -23 -13 -24 -61 -27 -16 -1 -28 -8 -31 -19 -3 -13 -15 -19 -41 -20
-65 -5 -77 -9 -74 -26 2 -9 2 -16 0 -17 -2 0 -23 -3 -48 -6 -28 -3 -50 -13
-58 -24 -9 -13 -25 -19 -51 -19 -27 0 -43 -6 -52 -20 -14 -19 -39 -28 -87 -29
-15 -1 -26 -9 -29 -21 -4 -16 -14 -20 -48 -20 -38 0 -73 -19 -60 -32 3 -2 -1
-5 -8 -6 -6 0 -28 -3 -47 -6 -19 -2 -41 -5 -47 -5 -7 -1 -13 -7 -13 -15 0 -17
-20 -25 -78 -28 -24 -1 -46 -6 -49 -12 -3 -5 -1 -6 5 -2 7 4 12 3 12 -2 0 -12
-35 -22 -78 -22 -25 0 -35 -5 -42 -25 -5 -14 -13 -25 -17 -24 -5 1 -31 1 -60
0 -42 -1 -53 -5 -58 -21 -5 -17 -15 -20 -64 -20 -52 0 -59 -3 -69 -25 -10 -22
-18 -25 -66 -25 -46 0 -56 -3 -61 -20 -5 -17 -15 -20 -70 -20 -59 0 -63 -2
-69 -25 -6 -23 -10 -25 -72 -25 -56 0 -64 -2 -62 -17 3 -15 -7 -19 -67 -23
-38 -3 -70 -9 -70 -15 -1 -24 -18 -32 -77 -34 -44 -1 -68 -7 -78 -18 -14 -16
-13 -16 5 -2 18 13 19 12 8 -2 -10 -12 -33 -17 -85 -18 -67 -2 -94 -13 -82
-33 3 -4 0 -9 -5 -9 -6 -1 -15 -3 -21 -4 -5 -1 -35 -3 -67 -4 -31 0 -53 -4
-50 -8 4 -3 2 -12 -4 -20 -8 -9 -36 -13 -86 -13 -66 0 -75 -2 -80 -20 -3 -11
-12 -21 -19 -21 -8 -1 -18 -3 -24 -4 -5 -1 -37 -3 -70 -4 -44 -1 -60 -5 -60
-15 0 -21 -23 -26 -111 -26 -64 0 -79 -3 -79 -15 0 -25 -32 -33 -128 -34 -35
-1 -61 -5 -58 -10 12 -19 -23 -29 -113 -30 -80 -2 -96 -5 -110 -22 -14 -17
-32 -21 -126 -25 -86 -5 -113 -9 -123 -22 -16 -21 -5 -19 -157 -21 -111 -1
-127 -3 -145 -21 -19 -19 -33 -20 -492 -20 -259 0 -468 3 -465 7 16 15 -32 32
-93 33 -68 0 -97 10 -86 29 4 6 0 12 -8 12 -9 1 -25 3 -36 4 -11 1 -27 3 -36
4 -8 0 -13 5 -10 9 7 11 -30 30 -64 34 -14 2 -25 9 -25 18 0 8 -14 17 -32 21
-18 3 -33 4 -33 2 0 -3 -7 0 -15 7 -8 7 -12 16 -9 21 6 10 -8 17 -51 22 -16 3
-29 10 -27 16 1 6 -10 16 -24 21 -14 6 -28 19 -31 30 -3 12 -14 20 -29 21 -44
3 -68 15 -59 30 4 5 -3 9 -14 9 -14 0 -23 9 -27 25 -4 18 -13 25 -30 25 -17 0
-24 6 -24 20 0 13 -7 20 -18 20 -10 0 -29 11 -42 25 -13 14 -31 25 -41 25 -9
0 -20 7 -23 16 -4 10 -2 13 7 8 8 -5 9 -4 2 4 -6 6 -22 13 -35 15 -18 3 -25
10 -24 26 0 16 -5 21 -23 21 -16 0 -23 6 -23 19 0 13 -8 21 -22 23 -13 2 -24
9 -24 16 -1 6 -2 17 -3 22 0 6 -10 10 -21 10 -13 0 -20 7 -20 19 0 13 -8 21
-22 23 -13 2 -24 9 -24 16 -1 6 -2 17 -3 22 0 6 -10 10 -21 10 -13 0 -20 7
-20 19 0 13 -8 21 -22 23 -13 2 -23 8 -23 15 0 15 -13 28 -28 28 -7 0 -13 10
-15 23 -2 14 -10 22 -23 22 -12 0 -23 10 -29 25 -5 14 -15 24 -22 23 -7 -2
-14 7 -16 20 -2 14 -10 22 -23 22 -12 0 -19 7 -19 20 0 11 -4 21 -10 21 -5 1
-16 2 -22 3 -7 0 -14 7 -14 14 -1 6 -2 17 -3 22 0 6 -10 10 -21 10 -11 0 -19
3 -19 8 4 21 -3 32 -20 32 -11 0 -23 5 -27 12 -5 7 -3 8 5 3 9 -5 9 -1 -1 14
-7 12 -21 21 -30 21 -10 0 -17 3 -17 8 3 20 -2 43 -9 38 -11 -7 -33 8 -35 25
-4 23 -18 40 -27 34 -6 -3 -13 12 -16 35 -6 34 -10 40 -30 40 -17 0 -24 6 -24
20 0 13 -7 20 -20 20 -14 0 -20 7 -20 23 0 14 -9 26 -22 32 -13 6 -23 17 -23
25 0 9 -8 14 -18 12 -9 -2 -17 1 -18 5 0 4 -3 17 -5 28 -2 11 -5 28 -6 37 -1
9 -5 16 -8 16 -19 -2 -40 3 -39 10 4 23 -3 42 -13 40 -7 -2 -17 7 -23 20 -5
12 -18 22 -27 22 -16 0 -24 23 -19 53 1 5 -3 6 -7 3 -5 -3 -16 2 -25 12 -16
17 -17 21 -17 46 0 7 -9 16 -21 19 -11 3 -23 14 -26 25 -3 11 -14 22 -24 25
-11 3 -19 9 -18 14 1 4 1 23 0 41 -1 25 -5 32 -21 32 -13 0 -20 7 -20 20 0 11
-4 21 -10 21 -5 1 -16 2 -22 3 -7 1 -12 8 -10 16 5 21 -19 70 -34 70 -8 0 -14
10 -14 25 0 20 -5 25 -24 25 -16 0 -23 6 -23 18 0 61 -4 72 -22 72 -13 0 -21
8 -23 23 -2 15 -9 21 -20 19 -10 -2 -19 2 -19 8 -1 5 -3 19 -4 30 -1 11 -3 26
-4 34 0 7 -10 16 -21 19 -13 3 -20 14 -21 31 -2 46 -4 51 -14 51 -19 0 -35 16
-35 36 0 17 -11 24 -33 20 -5 -1 -8 7 -7 16 4 37 0 74 -8 69 -20 -12 -39 18
-41 67 -1 9 -7 17 -15 17 -17 0 -26 21 -26 60 0 21 -6 29 -25 34 -14 4 -25 12
-24 19 5 43 -2 67 -21 67 -17 0 -20 7 -20 45 0 38 -3 45 -20 45 -20 0 -21 3
-24 55 0 18 -8 33 -18 37 -10 4 -20 25 -25 50 -5 27 -14 43 -23 43 -8 1 -14 7
-12 14 1 7 -2 18 -7 25 -5 6 -8 26 -6 43 2 30 -18 63 -34 55 -3 -1 -7 18 -9
43 -3 37 -7 45 -23 45 -10 0 -19 5 -19 11 0 5 6 7 13 3 9 -6 9 -4 0 7 -7 7
-13 34 -13 60 0 42 -3 48 -22 51 -20 3 -23 10 -26 53 -4 70 -10 95 -24 92 -14
-2 -15 2 -17 100 0 42 -4 73 -8 70 -3 -4 -15 0 -25 10 -16 14 -18 33 -18 160
0 81 -4 142 -9 139 -20 -13 -30 24 -28 114 2 77 5 95 17 95 12 0 16 17 18 85
2 73 6 88 27 110 19 20 24 37 26 85 3 72 7 85 25 85 9 0 14 13 15 40 1 37 3
49 9 68 1 4 1 12 0 17 -1 6 2 7 6 3 15 -16 34 16 34 59 0 24 4 42 8 39 19 -11
31 13 33 68 2 50 6 59 25 66 18 7 22 15 18 36 -5 26 21 68 35 59 4 -2 8 13 9
33 2 20 5 46 7 57 2 11 4 24 4 28 1 4 9 7 18 5 14 -2 18 5 20 32 0 19 2 41 2
48 1 6 10 12 21 12 17 0 20 7 20 41 0 32 4 42 20 46 12 3 20 14 21 29 1 13 3
29 4 34 1 6 3 15 4 20 0 6 10 10 21 10 16 0 20 7 21 38 1 20 1 40 0 45 0 4 8
7 19 7 15 0 20 7 21 30 2 52 4 55 27 58 19 3 22 10 22 44 0 31 4 41 20 45 15
4 20 14 21 42 1 20 1 39 0 44 0 4 10 7 24 7 22 0 25 4 26 38 1 20 1 40 0 45 0
4 8 7 19 7 13 0 20 7 21 20 1 11 2 30 3 43 1 15 8 23 24 25 19 3 22 9 22 48 0
37 3 44 20 44 14 0 20 7 21 25 3 47 4 50 27 60 12 5 22 19 22 30 0 38 12 66
26 61 9 -4 14 3 15 19 3 47 4 50 27 60 15 7 22 18 22 38 0 15 4 26 9 22 5 -3
12 -1 16 5 3 5 1 10 -5 10 -6 0 -8 5 -5 10 4 6 11 8 16 5 5 -4 9 5 9 20 0 17
7 28 23 34 17 6 22 16 22 42 0 26 6 36 23 44 21 9 25 22 25 77 0 9 2 17 6 16
26 -3 39 4 36 20 -3 21 22 72 35 72 6 0 10 13 10 29 0 29 21 57 33 44 4 -3 8
1 8 10 1 10 2 23 3 30 0 6 11 13 24 15 19 3 22 10 22 44 0 31 4 41 20 45 11 3
21 12 21 19 1 8 2 24 3 37 0 12 11 26 24 32 16 7 22 18 22 42 0 17 5 35 12 39
7 5 8 2 3 -7 -6 -11 -4 -10 8 1 9 8 18 26 20 39 2 14 11 25 21 27 24 3 25 5
28 47 1 23 7 37 15 37 14 0 22 13 28 47 2 10 4 20 5 23 1 3 2 8 1 12 0 5 2 7
7 7 22 -4 32 3 32 22 0 12 8 23 19 26 14 4 21 15 23 42 2 26 9 39 26 46 13 6
23 19 23 32 1 13 3 28 4 33 1 6 3 15 4 21 0 6 8 9 16 5 11 -4 15 1 15 19 0 20
5 25 25 25 14 0 24 3 24 8 -1 4 -1 24 0 45 1 30 5 37 21 37 19 0 26 19 21 58
-1 6 3 12 9 12 6 0 8 5 5 10 -3 6 0 10 8 10 8 0 17 9 20 21 3 11 15 23 26 26
15 4 21 13 21 34 0 17 10 39 23 52 12 12 23 27 23 32 1 6 2 16 3 23 0 6 6 12
12 12 5 0 7 -6 3 -12 -5 -9 -2 -9 9 1 18 15 23 26 7 16 -5 -3 -10 -1 -10 4 0
6 5 11 10 11 6 0 10 11 10 25 0 18 5 25 20 25 15 0 20 7 20 25 0 14 4 25 10
25 5 0 9 3 9 8 -4 22 3 34 16 28 11 -4 15 1 15 19 0 18 5 25 20 25 13 0 20 7
21 20 1 19 4 31 9 48 1 4 2 10 1 15 0 4 8 7 19 7 14 0 20 7 20 21 0 12 8 23
20 26 18 5 26 30 21 70 -1 7 9 15 23 19 17 4 27 15 31 35 4 16 13 32 21 37 8
4 15 20 16 35 2 21 8 27 25 27 17 0 23 6 23 22 0 12 9 32 21 44 11 12 21 31
22 42 1 22 22 36 38 26 5 -3 9 6 9 20 0 37 11 61 21 45 5 -9 10 1 15 28 5 33
11 43 28 45 14 2 22 11 24 30 2 14 11 32 20 40 16 12 16 11 2 -7 -14 -19 -14
-19 3 -6 9 7 17 24 17 37 0 17 8 27 25 34 16 6 23 14 19 25 -3 8 -1 15 4 15
19 0 42 31 42 55 0 15 10 31 26 41 14 9 23 23 20 30 -3 8 -1 14 5 14 19 0 39
28 41 59 2 22 7 31 20 31 16 0 23 11 19 33 -1 5 8 11 19 14 19 5 27 22 34 69
2 10 8 19 14 19 14 0 27 14 27 28 0 7 10 13 23 15 19 3 22 9 22 48 0 35 3 44
18 44 9 0 22 10 27 23 6 12 15 22 22 22 18 0 22 8 25 45 2 22 8 35 20 38 11 2
18 14 18 28 0 19 5 24 25 24 22 0 25 4 25 35 0 24 6 39 20 47 11 7 20 21 20
30 0 13 8 18 25 18 25 0 28 7 28 73 0 10 7 17 18 17 12 0 19 7 19 20 0 12 9
24 23 29 20 8 25 19 29 68 1 7 9 15 19 18 9 3 19 15 22 25 3 11 12 20 20 20
14 0 34 52 29 73 -2 5 7 11 18 14 11 3 20 14 20 23 0 10 9 22 20 25 11 3 21
11 21 16 2 10 5 25 9 37 1 4 2 11 1 15 -1 5 8 11 19 14 13 3 20 14 20 29 0 17
6 24 20 24 13 0 20 7 20 20 0 31 22 71 37 66 9 -4 13 3 13 19 0 18 5 25 20 25
13 0 20 7 21 20 1 19 4 31 9 48 1 4 2 10 1 15 0 4 2 6 6 6 24 -4 33 4 33 26 0
18 5 25 20 25 16 0 20 7 20 30 0 17 5 30 11 30 5 0 7 5 4 10 -4 6 -1 9 6 8 7
-2 19 9 26 25 8 15 21 27 29 27 8 0 14 10 14 23 0 13 3 27 8 31 4 4 7 13 7 19
0 7 7 12 15 12 8 0 16 10 18 22 2 12 12 25 23 28 10 4 19 14 19 24 0 10 3 21
8 25 4 4 7 13 7 19 0 7 7 12 15 12 9 0 16 11 18 28 2 19 9 27 23 27 12 0 19 7
19 19 0 11 4 22 10 26 5 3 6 13 3 21 -4 11 0 15 13 12 14 -2 20 4 22 25 2 19
9 27 23 27 12 0 19 7 19 18 0 10 3 22 8 26 4 4 7 13 7 19 1 7 5 11 11 10 5 -1
11 7 11 18 2 26 21 49 39 49 8 0 14 6 14 13 0 8 9 22 20 32 10 9 19 20 18 24
0 3 1 9 2 14 1 4 3 13 4 20 0 6 11 16 24 22 12 6 22 19 22 30 0 12 10 32 23
45 12 14 22 34 22 45 0 11 6 21 13 21 6 1 16 2 21 3 5 0 11 15 15 31 3 17 10
30 16 30 6 0 8 -6 4 -12 -4 -7 -3 -10 1 -5 5 4 11 18 13 30 2 12 5 29 6 37 2
8 13 16 24 18 16 2 22 10 22 28 0 14 4 22 10 19 6 -3 10 -1 10 5 0 6 5 8 10 5
9 -6 15 29 11 63 -1 7 9 12 24 12 18 0 25 5 25 19 0 18 23 45 31 36 3 -2 6 4
7 13 1 9 4 26 6 37 2 11 5 23 5 28 1 4 10 7 21 7 13 0 20 7 20 20 0 13 7 20
20 20 20 0 23 11 23 73 0 11 7 17 23 17 19 0 24 5 24 25 0 18 5 25 20 25 15 0
20 7 21 30 2 51 4 55 19 55 8 0 19 10 25 23 5 12 18 22 27 22 13 0 18 9 19 33
1 17 1 35 0 40 -1 4 10 12 24 17 16 6 23 15 19 24 -4 10 3 17 20 22 24 6 34
30 27 67 -1 5 7 11 18 14 11 3 22 16 25 29 4 15 14 24 26 24 14 0 20 7 21 25
2 33 3 38 12 53 6 8 0 12 -18 12 -18 0 -29 -6 -32 -19z m-783 -1255 c0 -3 -4
-8 -10 -11 -5 -3 -10 -1 -10 4 0 6 5 11 10 11 6 0 10 -2 10 -4z m-975 -315
c-9 -8 -36 -10 -30 -2 2 4 11 8 20 8 8 0 13 -3 10 -6z m9782 -133 c-3 -8 -6
-5 -6 6 -1 11 2 17 5 13 3 -3 4 -12 1 -19z m-10017 -4 c0 -8 -19 -13 -24 -6
-3 5 1 9 9 9 8 0 15 -2 15 -3z m-222 -130 c-1 -5 -9 -9 -16 -10 -10 -2 -11 1
-1 12 12 14 24 13 17 -2z m10459 1 c0 -8 -4 -12 -9 -9 -5 3 -6 10 -3 15 9 13
12 11 12 -6z m-392 -214 c3 -5 2 -12 -3 -15 -5 -3 -9 1 -9 9 0 17 3 19 12 6z
m-10505 -55 c0 -2 -8 -10 -17 -17 -16 -13 -17 -12 -4 4 13 16 21 21 21 13z
m-220 -148 c0 -4 -4 -8 -9 -8 -6 0 -12 4 -15 8 -3 5 1 9 9 9 8 0 15 -4 15 -9z
m-1080 -158 c0 -5 -5 -10 -11 -10 -5 0 -7 5 -4 10 3 6 8 10 11 10 2 0 4 -4 4
-10z m12371 -507 c13 -16 12 -17 -3 -4 -17 13 -22 21 -14 21 2 0 10 -8 17 -17z
m-12511 -67 c0 -2 -8 -10 -17 -17 -16 -13 -17 -12 -4 4 13 16 21 21 21 13z
m12600 -56 c0 -5 -2 -10 -4 -10 -3 0 -8 5 -11 10 -3 6 -1 10 4 10 6 0 11 -4
11 -10z m-12723 -35 c0 -8 -3 -13 -5 -10 -3 3 -12 -1 -21 -7 -10 -8 -9 -4 3
10 23 26 23 26 23 7z m1557 -223 c3 -5 -1 -9 -9 -9 -8 0 -12 4 -9 9 3 4 7 8 9
8 2 0 6 -4 9 -8z m-2454 -447 c0 -2 -6 -8 -13 -14 -10 -8 -14 -7 -14 2 0 8 6
14 14 14 7 0 13 -1 13 -2z m-540 -439 c0 -2 -8 -10 -17 -17 -16 -13 -17 -12
-4 4 13 16 21 21 21 13z m15025 -145 c3 -5 2 -12 -3 -15 -5 -3 -9 1 -9 9 0 17
3 19 12 6z m-15775 -5 c0 -2 -8 -10 -17 -17 -16 -13 -17 -12 -4 4 13 16 21 21
21 13z m307 -259 c0 -8 -6 -14 -14 -14 -9 0 -10 4 -2 14 6 7 12 13 14 13 1 0
2 -6 2 -13z m-193 -208 c-3 -5 -10 -7 -15 -3 -5 3 -7 10 -3 15 3 5 10 7 15 3
5 -3 7 -10 3 -15z m16005 -112 c8 -10 7 -14 -2 -14 -8 0 -14 6 -14 14 0 7 1
13 2 13 2 0 8 -6 14 -13z m-16269 -131 c0 -2 -8 -10 -17 -17 -16 -13 -17 -12
-4 4 13 16 21 21 21 13z m-40 -40 c0 -2 -8 -10 -17 -17 -16 -13 -17 -12 -4 4
13 16 21 21 21 13z m-34 -48 c4 -7 4 -10 -1 -6 -4 4 -15 2 -24 -5 -14 -11 -14
-10 -2 6 16 20 18 21 27 5z m-57 -61 c8 -10 7 -14 -2 -14 -8 0 -14 6 -14 14 0
7 1 13 2 13 2 0 8 -6 14 -13z m19411 -9 c0 -6 -6 -5 -15 2 -8 7 -15 14 -15 16
0 2 7 1 15 -2 8 -4 15 -11 15 -16z m-19800 -444 c0 -8 -19 -13 -24 -6 -3 5 1
9 9 9 8 0 15 -2 15 -3z m20194 -6 c-3 -4 -9 -8 -15 -8 -5 0 -9 4 -9 8 0 5 7 9
15 9 8 0 12 -4 9 -9z m-2903 -125 c13 -16 12 -17 -3 -4 -17 13 -22 21 -14 21
2 0 10 -8 17 -17z m43 -61 c3 -5 -1 -9 -9 -9 -8 0 -12 4 -9 9 3 4 7 8 9 8 2 0
6 -4 9 -8z m-17517 -17 c0 -6 -6 -12 -12 -12 -6 0 -12 6 -12 12 0 6 6 12 12
12 6 0 12 -6 12 -12z m-402 -542 c-2 -10 -4 -19 -4 -21 -1 -2 -6 0 -11 3 -8 5
-7 11 1 21 15 18 18 18 14 -3z m3125 -28 c0 -2 -6 -8 -13 -14 -10 -8 -14 -7
-14 2 0 8 6 14 14 14 7 0 13 -1 13 -2z m15120 -10 c0 -6 -6 -12 -13 -12 -8 0
-14 6 -14 12 0 6 6 12 14 12 7 0 13 -6 13 -12z m-18480 -309 c0 -2 -8 -10 -17
-17 -16 -13 -17 -12 -4 4 13 16 21 21 21 13z m21951 -233 c13 -16 12 -17 -3
-4 -17 13 -22 21 -14 21 2 0 10 -8 17 -17z m49 -69 c0 -8 -19 -13 -24 -6 -3 5
1 9 9 9 8 0 15 -2 15 -3z m-22195 -23 c3 -5 2 -12 -3 -15 -5 -3 -9 1 -9 9 0
17 3 19 12 6z m3052 -386 c0 -8 -4 -12 -9 -9 -5 3 -6 10 -3 15 9 13 12 11 12
-6z m19632 -778 c8 -10 7 -14 -2 -14 -8 0 -14 6 -14 14 0 7 1 13 2 13 2 0 8
-6 14 -13z m-23229 -330 c0 -2 -12 -14 -27 -28 l-28 -24 24 28 c23 25 31 32
31 24z m-111 -690 c8 -10 7 -14 -2 -14 -8 0 -14 6 -14 14 0 7 1 13 2 13 2 0 8
-6 14 -13z m3991 -993 c0 -8 -19 -13 -24 -6 -3 5 1 9 9 9 8 0 15 -2 15 -3z
m19440 -152 c0 -5 -7 -9 -15 -9 -8 0 -12 4 -9 9 3 4 9 8 15 8 5 0 9 -4 9 -8z
m-4060 -146 c0 -2 -8 -10 -17 -17 -16 -13 -17 -12 -4 4 13 16 21 21 21 13z
m-19226 -34 c3 -5 -1 -9 -9 -9 -8 0 -12 4 -9 9 3 4 7 8 9 8 2 0 6 -4 9 -8z
m120 -400 c3 -5 -1 -9 -9 -9 -8 0 -12 4 -9 9 3 4 7 8 9 8 2 0 6 -4 9 -8z
m18666 -228 c0 -8 -19 -13 -24 -6 -3 5 1 9 9 9 8 0 15 -2 15 -3z m-35 -23 c3
-5 2 -12 -3 -15 -5 -3 -9 1 -9 9 0 17 3 19 12 6z m-18440 -160 c3 -5 2 -12 -3
-15 -5 -3 -9 1 -9 9 0 17 3 19 12 6z m35 -92 c0 -5 4 -8 8 -5 5 3 9 -1 9 -8 0
-7 -6 -13 -14 -13 -7 0 -11 3 -8 5 3 3 0 11 -6 19 -9 9 -8 13 0 13 6 0 11 -5
11 -11z m18060 -185 c0 -8 -19 -13 -24 -6 -3 5 1 9 9 9 8 0 15 -2 15 -3z
m-13504 -89 c-1 -8 -5 -17 -8 -21 -5 -4 -4 16 1 34 3 9 9 -1 7 -13z m13431
-10 c0 -8 -4 -12 -9 -9 -5 3 -6 10 -3 15 9 13 12 11 12 -6z m-6687 -161 c0 -8
-19 -13 -24 -6 -3 5 1 9 9 9 8 0 15 -2 15 -3z m-11015 -86 c4 -3 2 -9 -3 -12
-5 -3 -15 1 -21 8 -10 11 -9 14 3 12 9 -1 18 -5 21 -8z m21972 -3 c0 -8 -4
-12 -9 -9 -5 3 -6 10 -3 15 9 13 12 11 12 -6z m-11337 -49 c0 -2 -8 -10 -17
-17 -16 -13 -17 -12 -4 4 13 16 21 21 21 13z m717 -13 c0 -9 -4 -10 -14 -2 -7
6 -13 12 -13 14 0 1 6 2 13 2 8 0 14 -6 14 -14z m223 -89 c0 -8 -19 -13 -24
-6 -3 5 1 9 9 9 8 0 15 -2 15 -3z m-2014 -306 c4 -7 4 -10 -1 -6 -4 4 -15 2
-24 -5 -14 -11 -14 -10 -2 6 16 20 18 21 27 5z m-126 -31 c0 -2 -10 -12 -22
-23 l-23 -19 19 23 c18 21 26 27 26 19z m3117 -14 c0 -9 -4 -10 -14 -2 -7 6
-13 12 -13 14 0 1 6 2 13 2 8 0 14 -6 14 -14z m4083 -229 c0 -8 -19 -13 -24
-6 -3 5 1 9 9 9 8 0 15 -2 15 -3z m-640 -299 c0 -2 -6 -8 -13 -14 -10 -8 -14
-7 -14 2 0 8 6 14 14 14 7 0 13 -1 13 -2z m-9063 -52 c0 -7 -3 -11 -5 -8 -3 3
-12 -1 -21 -8 -14 -10 -14 -10 -4 4 7 9 11 18 8 21 -3 2 1 5 8 5 8 0 14 -6 14
-14z m-6586 -680 c13 -16 12 -17 -3 -4 -17 13 -22 21 -14 21 2 0 10 -8 17 -17z
m847 -166 c17 -18 19 -24 7 -24 -8 0 -13 3 -10 5 3 3 -2 14 -12 24 -24 27 -10
22 15 -5z m19583 0 c-6 -8 -7 -18 -3 -22 4 -5 1 -5 -6 -1 -10 6 -10 11 -1 22
6 8 14 14 16 14 3 0 0 -6 -6 -13z m-19544 -92 c0 -8 -4 -12 -9 -9 -5 3 -6 10
-3 15 9 13 12 11 12 -6z m-2760 -140 c0 -6 -6 -12 -12 -12 -6 0 -12 6 -12 12
0 6 6 12 12 12 6 0 12 -6 12 -12z m25034 -2 c13 -16 12 -17 -3 -4 -17 13 -22
21 -14 21 2 0 10 -8 17 -17z m-25934 -1518 c0 -6 -6 -12 -12 -12 -6 0 -12 6
-12 12 0 6 6 12 12 12 6 0 12 -6 12 -12z m58 -27 c3 -3 -3 -11 -12 -19 -10 -7
-15 -9 -11 -5 4 5 3 15 -3 22 -7 9 -6 12 5 10 9 -1 18 -5 21 -8z m26716 -15
c13 -16 12 -17 -3 -4 -17 13 -22 21 -14 21 2 0 10 -8 17 -17z m-26367 -298 c5
0 10 -8 12 -17 3 -23 2 -23 -27 9 -13 14 -17 22 -9 17 8 -5 19 -9 24 -9z m933
-742 c0 -9 -4 -10 -14 -2 -7 6 -13 12 -13 14 0 1 6 2 13 2 8 0 14 -6 14 -14z
m674 -440 c13 -16 12 -17 -3 -4 -17 13 -22 21 -14 21 2 0 10 -8 17 -17z
m22809 4 c0 -8 -7 -14 -15 -14 -11 0 -12 4 -4 14 6 7 13 13 15 13 2 0 4 -6 4
-13z m-22355 -256 c3 -5 2 -12 -3 -15 -5 -3 -9 1 -9 9 0 17 3 19 12 6z m21892
-6 c0 -8 -4 -12 -9 -9 -5 3 -6 10 -3 15 9 13 12 11 12 -6z m-21350 -272 c0 -8
-4 -10 -12 -3 -7 5 -16 6 -20 2 -5 -4 -5 -2 -2 4 9 15 34 13 34 -3z m20813 7
c0 -5 -2 -10 -4 -10 -3 0 -8 5 -11 10 -3 6 -1 10 4 10 6 0 11 -4 11 -10z
m-17600 -125 c0 -2 -6 -8 -13 -14 -10 -8 -14 -7 -14 2 0 8 6 14 14 14 7 0 13
-1 13 -2z m14397 -17 c-3 -8 -6 -5 -6 6 -1 11 2 17 5 13 3 -3 4 -12 1 -19z
m-17034 -86 c14 -15 14 -19 3 -19 -8 0 -14 5 -13 11 1 6 -4 10 -11 8 -8 -1
-11 2 -7 8 8 13 9 13 28 -8z m314 -89 c0 -9 -4 -10 -14 -2 -7 6 -13 12 -13 14
0 1 6 2 13 2 8 0 14 -6 14 -14z m219 -45 c12 -14 13 -18 3 -10 -9 6 -18 10
-21 7 -2 -3 -5 2 -5 10 0 19 0 19 23 -7z m559 -38 c4 -6 12 -7 18 -3 7 4 6 0
-2 -10 -16 -20 -22 -22 -18 -5 1 7 -10 12 -28 12 -16 0 -29 -5 -28 -10 1 -6
-5 -11 -13 -11 -11 0 -11 4 3 19 17 19 58 24 68 8z m17511 3 c-10 -11 -36 -12
-36 -2 0 5 10 9 22 9 12 0 18 -3 14 -7z m-15037 -16 c8 -10 7 -14 -2 -14 -8 0
-14 6 -14 14 0 7 1 13 2 13 2 0 8 -6 14 -13z m14988 -2 c0 -6 -6 -12 -12 -12
-6 0 -12 6 -12 12 0 6 6 12 12 12 6 0 12 -6 12 -12z m-15120 -392 c-4 -3 -1
-13 6 -22 10 -14 10 -14 -4 -4 -9 7 -20 9 -25 5 -4 -4 -2 1 5 11 7 9 16 17 19
17 3 0 2 -3 -1 -7z m13321 -148 c-3 -3 -9 2 -12 12 -6 14 -5 15 5 6 7 -7 10
-15 7 -18z m-13458 -109 c0 -2 -8 -10 -17 -17 -16 -13 -17 -12 -4 4 13 16 21
21 21 13z m-80 -141 c0 -2 -6 -8 -13 -14 -10 -8 -14 -7 -14 2 0 8 6 14 14 14
7 0 13 -1 13 -2z m-220 -319 c0 -2 -8 -10 -17 -17 -16 -13 -17 -12 -4 4 13 16
21 21 21 13z m14480 -842 c0 -8 -19 -13 -24 -6 -3 5 1 9 9 9 8 0 15 -2 15 -3z
m-11552 -170 c69 -31 172 -81 192 -94 8 -5 60 -34 115 -65 55 -31 120 -69 145
-85 25 -16 59 -37 75 -46 17 -9 68 -42 115 -73 47 -30 92 -60 101 -66 9 -5 70
-46 135 -90 66 -44 126 -84 135 -90 9 -5 61 -40 115 -76 93 -62 174 -115 304
-197 49 -31 71 -45 145 -90 67 -40 302 -160 340 -172 38 -12 67 -53 49 -69
-15 -15 -165 -91 -229 -116 -33 -13 -89 -31 -125 -40 -36 -9 -81 -20 -100 -25
-19 -5 -96 -10 -172 -10 -108 0 -149 4 -200 20 -34 11 -69 20 -77 20 -15 0
-99 36 -166 71 -168 88 -338 253 -482 469 -66 98 -85 130 -101 160 -6 14 -25
45 -42 70 -16 25 -36 59 -45 75 -9 17 -27 48 -40 70 -13 22 -33 56 -45 75 -64
110 -185 297 -219 340 -24 29 -26 46 -8 53 21 9 27 8 85 -19z m7893 16 c19
-11 18 -13 -14 -53 -18 -23 -44 -60 -58 -82 -14 -22 -34 -53 -45 -69 -26 -39
-33 -50 -79 -126 -56 -91 -59 -95 -110 -185 -46 -81 -53 -92 -91 -155 -18 -30
-97 -153 -137 -214 -32 -49 -143 -181 -195 -232 -122 -120 -308 -236 -420
-263 -20 -5 -64 -16 -97 -25 -81 -22 -299 -22 -380 0 -33 9 -76 20 -95 23 -68
14 -287 114 -337 153 -20 16 3 47 45 64 42 17 217 105 289 146 26 15 59 33 73
40 26 13 37 21 150 93 230 148 250 161 595 392 28 18 88 58 135 89 47 31 97
65 112 75 15 11 29 19 32 19 2 0 33 18 67 40 35 22 80 49 99 60 19 12 53 31
75 44 70 41 344 176 358 176 5 0 17 -5 28 -10z m-11850 -33 c-6 -8 -9 -16 -6
-19 3 -2 -2 -5 -10 -5 -13 0 -13 3 2 19 19 21 31 25 14 5z m-54 -40 c0 -8 -6
-14 -14 -14 -9 0 -10 4 -2 14 6 7 12 13 14 13 1 0 2 -6 2 -13z m32 -340 c8
-10 7 -14 -2 -14 -8 0 -14 6 -14 14 0 7 1 13 2 13 2 0 8 -6 14 -13z m288
-1042 c0 -6 -6 -12 -12 -12 -6 0 -12 6 -12 12 0 6 6 12 12 12 6 0 12 -6 12
-12z m40 -142 c0 -9 -4 -10 -14 -2 -7 6 -13 12 -13 14 0 1 6 2 13 2 8 0 14 -6
14 -14z m15120 4 c0 -8 -6 -14 -14 -14 -9 0 -10 4 -2 14 6 7 12 13 14 13 1 0
2 -6 2 -13z m-15074 -121 c3 3 5 0 4 -8 -3 -14 -22 -23 -22 -10 0 4 -4 14 -10
22 -7 12 -6 13 7 3 8 -7 17 -10 21 -7z m46 -139 c8 -10 7 -14 -2 -14 -8 0 -14
6 -14 14 0 7 1 13 2 13 2 0 8 -6 14 -13z m14925 -5 c3 -5 -1 -9 -9 -9 -8 0
-12 4 -9 9 3 4 7 8 9 8 2 0 6 -4 9 -8z m-14514 -980 c0 -5 -7 -9 -15 -9 -8 0
-12 4 -9 9 3 4 9 8 15 8 5 0 9 -4 9 -8z m306 -587 c-1 -8 -6 -18 -10 -22 -4
-4 -6 -1 -4 7 2 8 -3 14 -10 12 -8 -1 -11 2 -7 8 10 15 34 12 31 -5z m165
-272 c13 -16 12 -17 -3 -4 -10 7 -18 15 -18 17 0 8 8 3 21 -13z m466 -538 c0
-6 -6 -12 -12 -12 -6 0 -12 6 -12 12 0 6 6 12 12 12 6 0 12 -6 12 -12z m12243
0 c0 -6 -6 -12 -13 -12 -8 0 -14 6 -14 12 0 6 6 12 14 12 7 0 13 -6 13 -12z
m-11524 -539 c1 -7 -4 -13 -11 -13 -7 0 -11 7 -10 16 2 9 4 18 4 20 2 8 15
-10 17 -23z m10800 0 c1 -7 -4 -13 -12 -13 -9 0 -11 4 -4 12 5 7 8 15 5 18 -3
4 -2 5 2 2 4 -3 8 -11 9 -19z m-8930 -1292 c-1 -8 -6 -17 -10 -21 -4 -4 -6 -1
-4 7 2 8 -3 14 -10 12 -8 -1 -11 1 -8 6 8 14 34 10 32 -4z m138 -176 c-3 -5
-12 -4 -20 3 -19 16 -18 18 6 12 11 -3 17 -9 14 -15z m261 -407 c3 -5 2 -12
-3 -15 -5 -3 -9 1 -9 9 0 17 3 19 12 6z m449 -969 c3 -5 -1 -9 -9 -9 -8 0 -12
4 -9 9 3 4 7 8 9 8 2 0 6 -4 9 -8z m5360 0 c3 -5 -1 -9 -9 -9 -8 0 -12 4 -9 9
3 4 7 8 9 8 2 0 6 -4 9 -8z m-5309 -134 c4 -3 2 -9 -3 -12 -5 -3 -15 1 -21 8
-10 11 -9 14 3 12 9 -1 18 -5 21 -8z m30 -136 c-3 -3 1 -12 8 -21 10 -14 10
-14 -4 -4 -9 7 -18 11 -21 8 -2 -3 -5 1 -5 8 0 8 6 14 14 14 7 0 11 -3 8 -5z
m5202 -7 c0 -8 -3 -13 -5 -10 -3 3 -12 -1 -21 -7 -10 -8 -9 -4 3 10 23 26 23
26 23 7z m-5108 -361 c-6 -8 -15 -12 -19 -9 -7 4 -7 13 -1 44 1 2 8 -2 16 -9
12 -10 13 -16 4 -26z m1102 -901 c13 -16 12 -17 -3 -4 -10 7 -18 15 -18 17 0
8 8 3 21 -13z m544 -263 c10 -11 16 -20 13 -20 -3 0 -13 9 -23 20 -10 11 -16
20 -13 20 3 0 13 -9 23 -20z m274 -133 c8 -10 7 -14 -2 -14 -8 0 -14 6 -14 14
0 7 1 13 2 13 2 0 8 -6 14 -13z m96 -36 c3 -5 2 -12 -3 -15 -5 -3 -9 1 -9 9 0
17 3 19 12 6z"/>
<path d="M10715 27530 c-3 -5 -1 -10 4 -10 6 0 11 5 11 10 0 6 -2 10 -4 10 -3
0 -8 -4 -11 -10z"/>
<path d="M21960 27530 c0 -5 5 -10 11 -10 5 0 7 5 4 10 -3 6 -8 10 -11 10 -2
0 -4 -4 -4 -10z"/>
<path d="M10620 27389 c0 -5 5 -7 10 -4 6 3 10 8 10 11 0 2 -4 4 -10 4 -5 0
-10 -5 -10 -11z"/>
<path d="M6490 26789 c0 -5 5 -7 10 -4 6 3 10 8 10 11 0 2 -4 4 -10 4 -5 0
-10 -5 -10 -11z"/>
<path d="M6000 26259 c0 -5 5 -7 10 -4 6 3 10 8 10 11 0 2 -4 4 -10 4 -5 0
-10 -5 -10 -11z"/>
<path d="M8485 23320 c-3 -5 -1 -10 4 -10 6 0 11 5 11 10 0 6 -2 10 -4 10 -3
0 -8 -4 -11 -10z"/>
<path d="M10670 19325 c7 -9 15 -13 17 -11 7 7 -7 26 -19 26 -6 0 -6 -6 2 -15z"/>
<path d="M27485 18210 c3 -5 8 -10 11 -10 2 0 4 5 4 10 0 6 -5 10 -11 10 -5 0
-7 -4 -4 -10z"/>
<path d="M30160 16820 c0 -5 5 -10 11 -10 5 0 7 5 4 10 -3 6 -8 10 -11 10 -2
0 -4 -4 -4 -10z"/>
<path d="M2600 15550 c0 -5 5 -10 11 -10 5 0 7 5 4 10 -3 6 -8 10 -11 10 -2 0
-4 -4 -4 -10z"/>
<path d="M26545 13220 c-3 -5 -1 -10 4 -10 6 0 11 5 11 10 0 6 -2 10 -4 10 -3
0 -8 -4 -11 -10z"/>
</g>
</svg>
